<?xml version="1.0" encoding="UTF-8"?>
<svg version="1.1" xmlns="http://www.w3.org/2000/svg" width="1024" height="1024">
<path d="M0 0 C337.92 0 675.84 0 1024 0 C1024 337.92 1024 675.84 1024 1024 C686.08 1024 348.16 1024 0 1024 C0 686.08 0 348.16 0 0 Z " fill="#F2EFEA" transform="translate(0,0)"/>
<path d="M0 0 C22.93500368 20.15650675 36.46745277 46.68336331 40 77 C41.15628906 77.41765625 42.31257813 77.8353125 43.50390625 78.265625 C54.11714022 82.25405264 64.57708506 87.3240228 73 95 C74.21042969 96.07314453 74.21042969 96.07314453 75.4453125 97.16796875 C90.47543386 111.25583479 100.62739261 131.98880723 101.43359375 152.69921875 C101.45751197 155.0285234 101.45821877 157.35816469 101.4375 159.6875 C101.42775146 160.91847412 101.41800293 162.14944824 101.40795898 163.41772461 C101.00121668 184.39873371 94.38876533 204.30842896 80 220 C79.41089844 220.73992187 78.82179688 221.47984375 78.21484375 222.2421875 C65.26585606 238.13287728 44.29250598 248.04024903 24.16796875 250.4609375 C21.11004507 250.70610148 18.06564542 250.89660555 15 251 C15.04640625 251.70640625 15.0928125 252.4128125 15.140625 253.140625 C15.51607416 263.81410832 13.38380429 273.64870572 11 284 C10.77505859 284.99128906 10.55011719 285.98257812 10.31835938 287.00390625 C4.41283835 312.74091522 -4.19845883 336.62934798 -24.25 354.75 C-29.46259465 359.78507595 -31.05173146 364.65139872 -32.8671875 371.484375 C-34.36075338 376.11957945 -36.42059911 379.69135355 -40.1875 382.8125 C-49.76411776 386.85596083 -58.6403688 383.71645718 -68.12890625 381.1171875 C-69.68844797 380.70074808 -71.24826271 380.28532991 -72.80833435 379.87088013 C-76.06638027 379.00154519 -79.32116131 378.12112962 -82.57397461 377.23242188 C-86.72327269 376.09956568 -90.87902174 374.99293264 -95.03750706 373.89434624 C-98.25655915 373.04114608 -101.4719999 372.17493723 -104.68650627 371.30478287 C-106.21675726 370.89201303 -107.74802392 370.48298813 -109.28033638 370.07793808 C-126.71487662 365.45070002 -126.71487662 365.45070002 -133.52734375 358.375 C-135.66572123 353.47431527 -134.96070359 349.24393664 -134.5625 344 C-134.20585148 334.79990925 -135.21003426 329.69497984 -141.44213867 322.92895508 C-142.46350152 321.84502989 -143.48817578 320.76421559 -144.51611328 319.68652344 C-158.44161269 303.85938459 -160.78018173 281.76655797 -163.88671875 261.84375 C-164.72657677 256.50146221 -165.74785346 251.26015897 -167 246 C-167.99 246 -168.98 246 -170 246 C-170.33 247.32 -170.66 248.64 -171 250 C-171.66 250 -172.32 250 -173 250 C-173.66 250.66 -174.32 251.32 -175 252 C-178.3721274 252.4611211 -181.78756405 252.33218532 -185.1875 252.3125 C-186.18475098 252.30686035 -187.18200195 252.3012207 -188.20947266 252.29541016 C-214.1147877 251.87360832 -236.94807098 241.29191036 -255 223 C-255.73863281 222.26007813 -256.47726562 221.52015625 -257.23828125 220.7578125 C-266.5973727 210.83535827 -272.72570323 198.85824163 -277 186 C-277.31759277 185.05809814 -277.31759277 185.05809814 -277.64160156 184.09716797 C-283.29698712 166.53499999 -283.17834541 145.65249732 -278 128 C-277.50693359 126.31003906 -277.50693359 126.31003906 -277.00390625 124.5859375 C-272.34460716 110.30171952 -265.24828202 97.02266989 -255 86 C-254.55817383 85.51192871 -254.11634766 85.02385742 -253.66113281 84.52099609 C-246.30153504 76.44182735 -238.47117781 70.42135834 -229 65 C-228.02417969 64.43539062 -227.04835937 63.87078125 -226.04296875 63.2890625 C-211.16052635 55.26760928 -195.66983726 53.04815499 -179 52 C-178.30777344 50.329375 -178.30777344 50.329375 -177.6015625 48.625 C-170.50593735 31.86445268 -162.01832506 17.79283975 -149 5 C-148.25105469 4.25234375 -147.50210938 3.5046875 -146.73046875 2.734375 C-106.5502511 -35.13492104 -41.73858087 -34.97397125 0 0 Z " fill="#F2EEE9" transform="translate(408,332)"/>
<path d="M0 0 C22.93500368 20.15650675 36.46745277 46.68336331 40 77 C41.15628906 77.41765625 42.31257813 77.8353125 43.50390625 78.265625 C54.11714022 82.25405264 64.57708506 87.3240228 73 95 C74.21042969 96.07314453 74.21042969 96.07314453 75.4453125 97.16796875 C90.47543386 111.25583479 100.62739261 131.98880723 101.43359375 152.69921875 C101.45751197 155.0285234 101.45821877 157.35816469 101.4375 159.6875 C101.42775146 160.91847412 101.41800293 162.14944824 101.40795898 163.41772461 C101.00121668 184.39873371 94.38876533 204.30842896 80 220 C79.41089844 220.73992187 78.82179688 221.47984375 78.21484375 222.2421875 C65.26585606 238.13287728 44.29250598 248.04024903 24.16796875 250.4609375 C21.11004507 250.70610148 18.06564542 250.89660555 15 251 C15.04640625 251.70640625 15.0928125 252.4128125 15.140625 253.140625 C15.51607416 263.81410832 13.38380429 273.64870572 11 284 C10.77505859 284.99128906 10.55011719 285.98257812 10.31835938 287.00390625 C4.41283835 312.74091522 -4.19845883 336.62934798 -24.25 354.75 C-29.46259465 359.78507595 -31.05173146 364.65139872 -32.8671875 371.484375 C-34.36075338 376.11957945 -36.42059911 379.69135355 -40.1875 382.8125 C-49.76411776 386.85596083 -58.6403688 383.71645718 -68.12890625 381.1171875 C-69.68844797 380.70074808 -71.24826271 380.28532991 -72.80833435 379.87088013 C-76.06638027 379.00154519 -79.32116131 378.12112962 -82.57397461 377.23242188 C-86.72327269 376.09956568 -90.87902174 374.99293264 -95.03750706 373.89434624 C-98.25655915 373.04114608 -101.4719999 372.17493723 -104.68650627 371.30478287 C-106.21675726 370.89201303 -107.74802392 370.48298813 -109.28033638 370.07793808 C-126.71487662 365.45070002 -126.71487662 365.45070002 -133.52734375 358.375 C-135.66572123 353.47431527 -134.96070359 349.24393664 -134.5625 344 C-134.20585148 334.79990925 -135.21003426 329.69497984 -141.44213867 322.92895508 C-142.46350152 321.84502989 -143.48817578 320.76421559 -144.51611328 319.68652344 C-157.30765514 305.1481932 -160.0828384 285.46262772 -162.90185547 267.09814453 C-164.70425209 255.77301541 -167.40659353 244.77334241 -170.49731445 233.73413086 C-172.65919586 225.70230164 -174.56504903 218.19285155 -170.72265625 210.4140625 C-165.64788027 204.94524509 -160.23848602 201.41630352 -152.640625 200.8125 C-144.50453092 201.26138795 -139.10949882 205.56970183 -133.75 211.375 C-130.62533144 215.04710065 -128.18968605 218.71186483 -126 223 C-124.2347975 220.35219625 -123.5219686 218.79789186 -122.6953125 215.828125 C-122.44789307 214.95599365 -122.20047363 214.0838623 -121.94555664 213.18530273 C-121.67477295 212.21665283 -121.40398926 211.24800293 -121.125 210.25 C-96.01682549 122.48467466 -96.01682549 122.48467466 -80.5 113.5625 C-74.01838486 112.10413659 -67.71824989 112.4895686 -62 116 C-56.56359186 120.8985303 -52.3967373 125.69215388 -51.83691406 133.18188477 C-51.60730068 141.46605236 -53.31257548 149.05177715 -55.25 157.0625 C-55.57298258 158.43890771 -55.89466941 159.81562008 -56.21508789 161.19262695 C-56.84559931 163.89638608 -57.48161118 166.59873255 -58.12353516 169.29980469 C-59.25799155 174.08916989 -60.3579844 178.88549918 -61.4375 183.6875 C-61.60088867 184.39205322 -61.76427734 185.09660645 -61.93261719 185.82250977 C-62.65441007 189.01471516 -63 191.695676 -63 195 C-61.69675781 195.36351562 -61.69675781 195.36351562 -60.3671875 195.734375 C-46.14485292 199.87062443 -46.14485292 199.87062443 -42.80859375 204.73828125 C-40.43835355 208.15567235 -39.03041858 209.76418281 -34.859375 210.71875 C-32.42310857 210.99296181 -29.98552898 211.25571536 -27.546875 211.5078125 C-21.18532358 212.39058285 -16.11690057 214.33899647 -12.0546875 219.4453125 C-8 225.91395349 -8 225.91395349 -8 230 C14.93702999 230.27071536 14.93702999 230.27071536 37 225 C38.17949219 224.52691406 39.35898437 224.05382812 40.57421875 223.56640625 C58.04457809 215.69057939 69.14283145 201.68318315 76 184 C82.18268165 166.26546578 80.44531891 145.63837355 72.4375 128.875 C65.29306388 114.85585479 54.31158713 105.33707374 39.61328125 99.7578125 C35.75260455 98.63827397 31.85479107 98.16850022 27.859375 97.78515625 C24.06048638 96.7420188 21.3185694 95.17424313 19 92 C18.11441998 88.95418666 18.03599967 85.97053249 17.9375 82.8125 C16.22164725 57.49557827 5.64261899 34.39646526 -13.43017578 17.30664062 C-18.23901643 13.30400997 -23.59877004 10.12702787 -29 7 C-29.86496094 6.49597656 -30.72992188 5.99195313 -31.62109375 5.47265625 C-38.37999004 1.82129849 -45.58933991 -0.09600169 -53 -2 C-53.59594971 -2.176521 -54.19189941 -2.35304199 -54.8059082 -2.53491211 C-69.13690074 -5.57269344 -87.38425343 -4.33657466 -101 1 C-102.16917969 1.42410156 -103.33835937 1.84820312 -104.54296875 2.28515625 C-126.97360398 11.06661541 -143.7909453 28.19224367 -154.04589844 49.78710938 C-156.22996252 54.85270735 -157.93536303 60.12056807 -159.56689453 65.38671875 C-159.82841309 66.20269531 -160.08993164 67.01867187 -160.359375 67.859375 C-160.58077148 68.58608398 -160.80216797 69.31279297 -161.03027344 70.06152344 C-162.30205225 72.60380032 -163.52475168 73.61079129 -166 75 C-168.49511719 75.27709961 -168.49511719 75.27709961 -171.296875 75.15234375 C-172.33013916 75.12140625 -173.36340332 75.09046875 -174.42797852 75.05859375 C-176.07237915 74.99865234 -176.07237915 74.99865234 -177.75 74.9375 C-198.81379999 74.60006946 -217.26296591 80.60047152 -233 95 C-234.02287109 95.88558594 -234.02287109 95.88558594 -235.06640625 96.7890625 C-244.03401535 105.03715697 -250.77234654 116.63818131 -255 128 C-255.391875 129.03511719 -255.78375 130.07023438 -256.1875 131.13671875 C-262.83995939 151.76396262 -260.05090259 174.10891781 -250.41601562 193.21289062 C-246.646335 200.15703914 -241.6533676 205.54764103 -236 211 C-235.36707031 211.66386719 -234.73414063 212.32773437 -234.08203125 213.01171875 C-224.09471303 222.82266049 -206.86248684 230.01237825 -192.89428711 229.99780273 C-188.42773326 229.84352036 -188.42773326 229.84352036 -183.96484375 229.609375 C-181.765625 229.546875 -181.765625 229.546875 -178 230 C-173.98896744 234.69702404 -173.13738418 240.87054528 -172.75 246.875 C-173 250 -173 250 -175 252 C-178.3721274 252.4611211 -181.78756405 252.33218532 -185.1875 252.3125 C-186.18475098 252.30686035 -187.18200195 252.3012207 -188.20947266 252.29541016 C-214.1147877 251.87360832 -236.94807098 241.29191036 -255 223 C-255.73863281 222.26007813 -256.47726562 221.52015625 -257.23828125 220.7578125 C-266.5973727 210.83535827 -272.72570323 198.85824163 -277 186 C-277.31759277 185.05809814 -277.31759277 185.05809814 -277.64160156 184.09716797 C-283.29698712 166.53499999 -283.17834541 145.65249732 -278 128 C-277.50693359 126.31003906 -277.50693359 126.31003906 -277.00390625 124.5859375 C-272.34460716 110.30171952 -265.24828202 97.02266989 -255 86 C-254.55817383 85.51192871 -254.11634766 85.02385742 -253.66113281 84.52099609 C-246.30153504 76.44182735 -238.47117781 70.42135834 -229 65 C-228.02417969 64.43539062 -227.04835937 63.87078125 -226.04296875 63.2890625 C-211.16052635 55.26760928 -195.66983726 53.04815499 -179 52 C-178.30777344 50.329375 -178.30777344 50.329375 -177.6015625 48.625 C-170.50593735 31.86445268 -162.01832506 17.79283975 -149 5 C-148.25105469 4.25234375 -147.50210938 3.5046875 -146.73046875 2.734375 C-106.5502511 -35.13492104 -41.73858087 -34.97397125 0 0 Z " fill="#101312" transform="translate(408,332)"/>
<path d="M0 0 C1.00740234 -0.00773437 2.01480469 -0.01546875 3.05273438 -0.0234375 C25.07862554 0.03322074 44.88908308 8.51363951 61.0625 23.25 C61.76761719 23.87390625 62.47273437 24.4978125 63.19921875 25.140625 C73.2784446 34.56638434 80.0273289 46.54442807 85.0625 59.25 C85.49820313 60.32765625 85.93390625 61.4053125 86.3828125 62.515625 C92.15071738 79.85967465 91.33444357 102.13404186 85.0625 119.25 C84.63839844 120.44109375 84.21429688 121.6321875 83.77734375 122.859375 C75.81114603 143.18538366 61.18124989 157.64585681 43.0625 169.25 C41.73573492 169.60858516 40.40414079 169.9518576 39.0625 170.25 C38.7325 170.91 38.4025 171.57 38.0625 172.25 C36 172.875 36 172.875 34.0625 173.25 C33.32 172.198125 32.5775 171.14625 31.8125 170.0625 C26.37450206 163.66637862 17.78234447 161.7888179 10.0625 159.25 C10.73541174 150.22263016 12.93892402 141.53750508 15 132.75 C15.36441146 131.1811008 15.72834725 129.61209104 16.09179688 128.04296875 C18.80433059 116.34217044 18.80433059 116.34217044 19.74902344 112.34570312 C21.70807149 103.89752822 22.41455706 96.18422382 18.39453125 88.2578125 C14.91112717 83.00716823 10.2756247 79.51798463 4.0625 78.25 C-2.35748492 77.62871114 -6.59256546 78.61769144 -11.9375 82.25 C-16.64537321 86.703891 -19.35710709 91.56059518 -21.625 97.5625 C-21.94895752 98.39499268 -22.27291504 99.22748535 -22.60668945 100.08520508 C-28.55753504 115.77002279 -33.73192662 131.91099357 -38.31103516 148.04931641 C-38.64673271 149.22570427 -38.64673271 149.22570427 -38.98921204 150.42585754 C-39.41816883 151.93951659 -39.84015397 153.45517293 -40.25431824 154.97294617 C-40.75728652 156.74944723 -41.34040487 158.50288509 -41.9375 160.25 C-42.5975 160.58 -43.2575 160.91 -43.9375 161.25 C-44.5975 162.24 -45.2575 163.23 -45.9375 164.25 C-46.2675 163.59 -46.5975 162.93 -46.9375 162.25 C-47.5975 162.91 -48.2575 163.57 -48.9375 164.25 C-70.27295386 147.38103368 -84.39493197 127.90928114 -87.9375 100.25 C-89.44169926 73.63929378 -83.30004658 50.42320488 -65.5625 30.0625 C-64.03788868 28.44211513 -62.49625245 26.83756972 -60.9375 25.25 C-60.20144531 24.48945313 -59.46539062 23.72890625 -58.70703125 22.9453125 C-43.02152701 7.75901191 -21.61247529 -0.16529618 0 0 Z " fill="#F1EFE7" transform="translate(333.9375,367.75)"/>
<path d="M0 0 C3.625 0.375 3.625 0.375 5.5625 2.375 C8.25259947 9.97057498 5.89234231 17.45738365 3.9921875 24.984375 C3.58308891 26.65356491 3.58308891 26.65356491 3.16572571 28.35647583 C2.58429348 30.7261981 1.9989493 33.09496344 1.41000366 35.46282959 C-0.1079842 41.57173933 -1.59334712 47.68858339 -3.08203125 53.8046875 C-3.37246811 54.99494537 -3.66290497 56.18520325 -3.96214294 57.41152954 C-6.13600522 66.33732114 -8.24153886 75.27155505 -10.1875 84.25 C-10.54062256 85.83699707 -10.54062256 85.83699707 -10.90087891 87.45605469 C-12.05277797 92.87643531 -12.70304627 97.83037481 -12.375 103.375 C-11.39232141 104.58061184 -11.39232141 104.58061184 -9.52734375 104.47265625 C-6.45117188 104.42382812 -6.45117188 104.42382812 -3.375 104.375 C-1.47652142 100.27046809 0.34035285 96.19289846 1.828125 91.91796875 C2.23546875 90.74878906 2.6428125 89.57960938 3.0625 88.375 C3.61744141 86.704375 3.61744141 86.704375 4.18359375 85 C5.625 82.375 5.625 82.375 7.9921875 81.390625 C10.93017375 81.37318888 12.66195864 81.88298062 15.3125 83.125 C16.07949219 83.47046875 16.84648437 83.8159375 17.63671875 84.171875 C19.625 85.375 19.625 85.375 21.625 88.375 C22.24062006 94.9005726 20.76782218 100.68498079 19.18359375 107.0078125 C18.60130922 110.51780738 18.71634555 112.94892585 19.625 116.375 C21.58133975 118.78621859 21.58133975 118.78621859 25.25 118.5 C26.36375 118.45875 27.4775 118.4175 28.625 118.375 C31.23744595 112.75824121 33.01220259 107.01079895 34.7578125 101.0703125 C35.625 98.375 35.625 98.375 36.625 97.375 C41.87432383 96.96328833 45.10537488 97.68474695 49.625 100.375 C51.49649284 102.24649284 50.79905016 105.3135201 50.8125 107.8125 C50.79056443 113.20316674 50.22040679 118.01780478 49.015625 123.25 C48.47190676 126.20782721 48.69876509 128.52504642 49.625 131.375 C53.4753105 133.94187367 55.21069763 133.20788724 59.625 132.375 C61.54039047 127.41239743 63.23461435 122.50873162 64.625 117.375 C70.11912352 117.86336653 70.11912352 117.86336653 72.29833984 120.06738281 C77.40023859 128.94171976 72.26053315 143.24023299 70 152.625 C69.81826233 153.3974707 69.63652466 154.16994141 69.44927979 154.96582031 C63.94326827 178.35530385 56.47542059 199.08390522 38.8125 216.1875 C31.34966199 223.45290844 28.71088789 230.19993713 26.625 240.375 C20.36424234 240.7428047 15.04665638 239.38752356 9.0390625 237.70703125 C8.02387543 237.43034103 7.00868835 237.15365082 5.96273804 236.86857605 C2.72282706 235.98314813 -0.51351072 235.08534452 -3.75 234.1875 C-5.88650648 233.60273951 -8.02322359 233.01874801 -10.16015625 232.43554688 C-19.5753095 229.85823824 -28.97790154 227.23639403 -38.3515625 224.51171875 C-39.05928802 224.30787064 -39.76701355 224.10402252 -40.4961853 223.89399719 C-45.25591107 222.49408893 -45.25591107 222.49408893 -46.375 221.375 C-46.35239107 219.79275148 -46.2673438 218.21131803 -46.15625 216.6328125 C-44.99027173 203.65735713 -44.99027173 203.65735713 -50.25 192.375 C-51.06726563 191.57835937 -51.88453125 190.78171875 -52.7265625 189.9609375 C-64.43455914 178.52923576 -69.98099155 163.47740648 -72.5 147.63671875 C-73.60047109 140.8091673 -74.96109749 134.0314836 -76.3125 127.25 C-76.44270538 126.59289032 -76.57291077 125.93578064 -76.70706177 125.25875854 C-78.16281167 117.93612503 -79.69174136 110.67820081 -81.75 103.5 C-83.15040854 98.5724214 -83.88593987 94.48439867 -83.375 89.375 C-82.375 88.375 -82.375 88.375 -79.75 87.9375 C-74.83856467 88.57416754 -72.37292678 90.62442916 -69.375 94.375 C-62.70528678 105.24953243 -58.87138835 117.14624099 -55.06738281 129.25146484 C-54.27759023 131.67375534 -53.37447933 134.0315606 -52.375 136.375 C-50.395 136.375 -48.415 136.375 -46.375 136.375 C-46.14425781 135.37041748 -45.91351563 134.36583496 -45.67578125 133.33081055 C-43.10638048 122.2290869 -40.31990246 111.19531874 -37.375 100.1875 C-37.14089417 99.31148132 -36.90678833 98.43546265 -36.66558838 97.53289795 C-31.69286833 79.00397825 -26.02305263 60.73061979 -20.06567383 42.49780273 C-19.18155915 39.78045486 -18.31117647 37.05881808 -17.4414978 34.33682251 C-16.47033242 31.30484794 -15.4847813 28.2775745 -14.5 25.25 C-14.16726074 24.20859863 -13.83452148 23.16719727 -13.49169922 22.09423828 C-6.42572553 0.7139695 -6.42572553 0.7139695 0 0 Z " fill="#F2EFEA" transform="translate(334.375,460.625)"/>
<path d="M0 0 C1.42119141 0.63615234 1.42119141 0.63615234 2.87109375 1.28515625 C17.48968629 8.56403936 27.04704111 20.5185436 32.9765625 35.4609375 C37.87911712 51.08496671 36.74550281 70.13270792 30 85 C27.94509265 88.9194551 25.65895913 92.46630704 23 96 C22.50113281 96.70382812 22.00226563 97.40765625 21.48828125 98.1328125 C13.29003683 108.66456226 -0.92633018 116.02353674 -14 118 C-33.01918434 119.24680601 -49.35731606 116.48627722 -64.25 103.75 C-75.47433013 93.09489105 -82.74247629 78.8008231 -83.3359375 63.20703125 C-83.64963402 41.03799494 -83.64963402 41.03799494 -79 31 C-78.36384766 29.58267578 -78.36384766 29.58267578 -77.71484375 28.13671875 C-70.38182587 13.36855182 -58.21535242 3.41862572 -42.84765625 -2.08984375 C-29.55290612 -6.33905744 -12.73595108 -5.74998635 0 0 Z " fill="#101312" transform="translate(626,363)"/>
<path d="M0 0 C1.00740234 -0.00773437 2.01480469 -0.01546875 3.05273438 -0.0234375 C25.07862554 0.03322074 44.88908308 8.51363951 61.0625 23.25 C61.76761719 23.87390625 62.47273437 24.4978125 63.19921875 25.140625 C73.2784446 34.56638434 80.0273289 46.54442807 85.0625 59.25 C85.49820313 60.32765625 85.93390625 61.4053125 86.3828125 62.515625 C92.15071738 79.85967465 91.33444357 102.13404186 85.0625 119.25 C84.63839844 120.44109375 84.21429688 121.6321875 83.77734375 122.859375 C76.83196772 140.58072443 64.63969565 154.55423752 49.0625 165.25 C48.34320313 165.75144531 47.62390625 166.25289062 46.8828125 166.76953125 C42.78507596 169.39876564 42.78507596 169.39876564 39.9375 168.8125 C38.0625 167.25 38.0625 167.25 36.0625 165 C32.05824227 160.74150368 26.27900255 158.67105621 21.0625 156.25 C23.2889473 154.7657018 25.26767599 153.61309564 27.65234375 152.47265625 C45.21608889 143.82492013 58.18159279 132.11317668 65.0625 113.25 C70.78931913 95.22736334 70.92143521 77.22554734 62.375 60 C52.81538272 41.70392422 39.43753332 29.63792847 19.625 23.375 C1.54556939 18.2648926 -16.91362782 21.15602436 -33.171875 30.0234375 C-49.39130863 39.35818707 -59.51057644 54.32771898 -65.3125 71.875 C-70.23394892 90.55179571 -66.53963504 110.01477067 -57.00585938 126.55126953 C-55.06323918 129.64010666 -52.76683388 132.29936851 -50.1875 134.8671875 C-48.9375 136.25 -48.9375 136.25 -48.9375 138.25 C-48.2775 138.25 -47.6175 138.25 -46.9375 138.25 C-46.9375 138.91 -46.9375 139.57 -46.9375 140.25 C-45.9784375 140.62125 -45.9784375 140.62125 -45 141 C-42.9375 142.25 -42.9375 142.25 -42.23266602 144.05761719 C-41.88463073 146.64269314 -42.2937223 148.12492087 -43.15234375 150.578125 C-43.56323242 151.77695312 -43.56323242 151.77695312 -43.98242188 153 C-44.27697266 153.825 -44.57152344 154.65 -44.875 155.5 C-45.16568359 156.34046875 -45.45636719 157.1809375 -45.75585938 158.046875 C-46.47371233 160.11805731 -47.20116119 162.18533262 -47.9375 164.25 C-68.30096084 151.11704337 -81.23674927 131.70683991 -86.75 108.25 C-90.99393211 84.77499268 -87.00676397 60.96524629 -74.0625 40.8125 C-70.09598748 35.22887083 -65.7335359 30.13470211 -60.9375 25.25 C-60.20144531 24.48945313 -59.46539062 23.72890625 -58.70703125 22.9453125 C-43.02152701 7.75901191 -21.61247529 -0.16529618 0 0 Z " fill="#209AE5" transform="translate(333.9375,367.75)"/>
<path d="M0 0 C9.15649506 8.17041098 14.27124458 18.64330099 15.21875 30.80859375 C15.60963596 43.3332313 12.45981452 55.85206923 3.8828125 65.26953125 C-6.50788247 74.81948534 -18.24458769 77.84941543 -32.05859375 77.34765625 C-44.44998767 76.25465917 -53.50915082 70.66431139 -61.39453125 61.28125 C-69.39621116 49.91146638 -70.06030454 37.43148724 -69 24 C-66.72443387 12.64817582 -59.30198234 3.6159996 -50 -3 C-33.45014602 -11.50654072 -15.4984591 -11.07378201 0 0 Z " fill="#0F1211" transform="translate(682,545)"/>
<path d="M0 0 C8.05197899 7.13239365 12.83873462 18.30509313 13.875 28.875 C13.875 32.835 13.875 36.795 13.875 40.875 C-6.585 40.875 -27.045 40.875 -48.125 40.875 C-45.94705214 51.12683105 -45.94705214 51.12683105 -39.25 58.25 C-33.16493364 61.37796068 -25.06374712 60.96705138 -18.6171875 59.1796875 C-13.91658856 57.05280053 -11.13026749 54.0072428 -8.125 49.875 C-3.70416835 50.6218201 0.45656741 51.99210006 4.6875 53.4375 C5.72680664 53.78844727 5.72680664 53.78844727 6.78710938 54.14648438 C8.48400114 54.71991676 10.17963078 55.29708169 11.875 55.875 C8.32447603 65.29022873 1.11530129 70.87242025 -7.8203125 75.171875 C-19.83717864 80.12210643 -34.09885307 81.05034551 -46.34765625 76.26171875 C-57.92366975 70.48185266 -65.85118817 62.33401234 -70.3984375 50.234375 C-73.67172341 39.60499493 -73.99799249 25.51850052 -69.4375 15.2890625 C-62.78174286 3.04722348 -53.63317671 -5.04488519 -40.125 -9.125 C-25.37009383 -12.59811377 -12.18349717 -8.28477808 0 0 Z " fill="#101312" transform="translate(838.125,402.125)"/>
<path d="M0 0 C6.93 0 13.86 0 21 0 C21.33 14.19 21.66 28.38 22 43 C24.88798679 43 25.88530103 41.54215098 28.0625 39.6875 C34.41489938 34.65044495 40.80290102 32.13714748 49 33 C58.35170317 35.06155757 65.64379566 38.87864492 71 47 C74.91413668 55.63929937 75.54809977 63.70660967 75.390625 73.078125 C75.38496521 74.37071228 75.37930542 75.66329956 75.37347412 76.99505615 C75.35839065 80.38841199 75.31926564 83.78105437 75.2746582 87.1741333 C75.23332553 90.65375117 75.21538309 94.13348729 75.1953125 97.61328125 C75.15274828 104.40917216 75.08254699 111.20447811 75 118 C67.74 118 60.48 118 53 118 C52.98541748 116.39560059 52.97083496 114.79120117 52.95581055 113.13818359 C52.89777973 107.17799747 52.8205461 101.21818723 52.73754883 95.25830078 C52.70432219 92.6802379 52.67628327 90.10210267 52.65356445 87.52392578 C52.61997793 83.81511646 52.56765756 80.1069688 52.51171875 76.3984375 C52.50532883 75.24822113 52.4989389 74.09800476 52.49235535 72.91293335 C52.38851926 67.24397451 52.3000879 62.844175 49 58 C44.82848467 54.21956423 40.80286196 53.62793196 35.34765625 53.734375 C31.44313918 54.17615064 28.89428437 55.36212104 26 58 C21.75643718 64.57040714 21.39956755 71.19416245 21.390625 78.81640625 C21.37408875 79.91347397 21.35755249 81.01054169 21.34051514 82.14085388 C21.29226962 85.61479421 21.27071562 89.08829751 21.25 92.5625 C21.22182083 94.93036025 21.1918907 97.29820035 21.16015625 99.66601562 C21.08651648 105.44397441 21.03679844 111.2216939 21 117 C14.07 117 7.14 117 0 117 C0 78.39 0 39.78 0 0 Z " fill="#0F1211" transform="translate(870,503)"/>
<path d="M0 0 C9.81472263 6.33760449 15.74185908 13.94516285 18.23828125 25.4453125 C19.35813772 39.30990794 19.2749997 53.48526457 9.99609375 64.69921875 C2.17967394 72.46352909 -6.70235709 75.70334767 -17.57421875 75.9453125 C-27.08117305 75.88989129 -35.04858536 73.29183545 -42.19921875 66.8203125 C-52.09691482 55.95346702 -52.45941578 42.74161955 -51.94091797 28.86083984 C-51.16895743 18.45514835 -46.18181424 10.86540799 -39.01171875 3.6953125 C-28.18252196 -3.80182374 -12.18676392 -6.01971413 0 0 Z " fill="#F2EFEA" transform="translate(618.76171875,383.5546875)"/>
<path d="M0 0 C5.32052588 4.24567217 8.50065599 9.86799228 10.6875 16.25 C10.92800903 19.28096008 10.92800903 19.28096008 10.91455078 22.69262695 C10.91439972 23.97357742 10.91424866 25.25452789 10.91409302 26.57429504 C10.9038813 27.96229205 10.89344933 29.35028744 10.8828125 30.73828125 C10.8790795 32.16602887 10.87623388 33.59377905 10.87423706 35.02153015 C10.86662318 38.76818999 10.84699419 42.51469326 10.8248291 46.2612915 C10.80432214 50.08888634 10.795225 53.91650662 10.78515625 57.74414062 C10.76374597 65.24617318 10.72858236 72.74804465 10.6875 80.25 C3.0975 80.25 -4.4925 80.25 -12.3125 80.25 C-12.3218457 78.58501465 -12.33119141 76.9200293 -12.34082031 75.20458984 C-12.38072533 69.02072504 -12.44648708 62.83735745 -12.52001953 56.65380859 C-12.55042944 53.97854791 -12.56944044 51.30389447 -12.58349609 48.62841797 C-12.60492903 44.78049079 -12.65158517 40.93356476 -12.703125 37.0859375 C-12.70435364 35.89197357 -12.70558228 34.69800964 -12.70684814 33.46786499 C-12.81848873 27.12276827 -12.98272611 23.04389492 -17.3125 18.25 C-21.29399273 14.63046116 -25.51534956 14.80591806 -30.65625 14.96484375 C-35.47186834 15.48181454 -38.23185552 17.13933762 -41.5625 20.5625 C-45.79210877 27.05797062 -45.64658531 33.48276839 -45.7265625 40.9921875 C-45.74592865 42.11569611 -45.7652948 43.23920471 -45.7852478 44.39675903 C-45.84485875 47.97276298 -45.89135548 51.54879943 -45.9375 55.125 C-45.97569674 57.55470126 -46.01474946 59.98438923 -46.0546875 62.4140625 C-46.15215048 68.35930445 -46.23186746 74.30441077 -46.3125 80.25 C-53.9025 80.25 -61.4925 80.25 -69.3125 80.25 C-69.3125 52.2 -69.3125 24.15 -69.3125 -4.75 C-61.7225 -4.75 -54.1325 -4.75 -46.3125 -4.75 C-46.3125 -1.78 -46.3125 1.19 -46.3125 4.25 C-45.61125 3.70730469 -44.91 3.16460937 -44.1875 2.60546875 C-29.79773118 -8.24551181 -15.63773516 -10.67800572 0 0 Z " fill="#0F1212" transform="translate(744.3125,398.75)"/>
<path d="M0 0 C6.93 0 13.86 0 21 0 C21.01401855 2.39088867 21.01401855 2.39088867 21.02832031 4.83007812 C21.06830147 10.76427788 21.13408427 16.69796366 21.20751953 22.63183594 C21.23568181 25.19622171 21.25691981 27.76069353 21.27099609 30.32519531 C21.29249026 34.01932677 21.33917745 37.71242887 21.390625 41.40625 C21.39185364 42.5461438 21.39308228 43.6860376 21.39434814 44.86047363 C21.5089482 51.14018234 21.83891369 56.97485294 26 62 C30.52247283 64.70358138 34.86178947 64.51219504 40 64 C45.23335273 62.25554909 47.40549567 59.81836519 50 55 C52.18902235 48.9306174 52.34097675 43.23090769 52.4140625 36.81640625 C52.43342865 35.76090073 52.4527948 34.7053952 52.4727478 33.61790466 C52.53224553 30.2661838 52.57880965 26.91442803 52.625 23.5625 C52.6632072 21.28188655 52.70226051 19.00128711 52.7421875 16.72070312 C52.83950566 11.14721074 52.91931179 5.57385692 53 0 C59.93 0 66.86 0 74 0 C74 27.39 74 54.78 74 83 C67.4 83 60.8 83 54 83 C54 80.03 54 77.06 54 74 C53.21496094 74.55429687 52.42992187 75.10859375 51.62109375 75.6796875 C50.57050781 76.40414062 49.51992188 77.12859375 48.4375 77.875 C46.88869141 78.95394531 46.88869141 78.95394531 45.30859375 80.0546875 C37.35150295 84.73311869 29.00083602 84.77642994 20 84 C12.76489995 82.10679843 6.55305854 77.89850499 2.6875 71.4375 C0.30435968 66.5829549 -0.12416842 63.07755901 -0.11352539 57.67089844 C-0.11344986 56.38987244 -0.11337433 55.10884644 -0.11329651 53.78900146 C-0.10819026 52.39579225 -0.10297427 51.00258343 -0.09765625 49.609375 C-0.09579032 48.18019663 -0.09436724 46.75101762 -0.09336853 45.32183838 C-0.08955715 41.56699852 -0.07973867 37.81219757 -0.06866455 34.05737305 C-0.05842075 30.22314988 -0.05386455 26.38892041 -0.04882812 22.5546875 C-0.03811513 15.03643857 -0.02052953 7.5182297 0 0 Z " fill="#101312" transform="translate(706,538)"/>
<path d="M0 0 C27.39 0 54.78 0 83 0 C83 6.6 83 13.2 83 20 C73.1 20 63.2 20 53 20 C53 50.69 53 81.38 53 113 C45.41 113 37.82 113 30 113 C30 82.31 30 51.62 30 20 C20.1 20 10.2 20 0 20 C0 13.4 0 6.8 0 0 Z " fill="#101312" transform="translate(541,508)"/>
<path d="M0 0 C11.05544913 8.3636876 18.82606008 20.12819289 21 34 C21.95617463 48.72876687 19.31141136 62.54295219 9.8125 74.1875 C4.00641468 80.43631514 -3.02004989 85.050888 -11 88 C-10.14252245 76.20968363 -8.142057 63.81079039 -1.26953125 53.98046875 C2.10612971 48.71443765 1.53376802 42.01230362 1 36 C-1.0750753 28.02674871 -4.93106039 20.79891935 -11.875 16.1875 C-20.16981848 11.50916082 -29.53098143 10.42087757 -38.81640625 12.6875 C-47.53259526 15.88121811 -52.74071569 20.70929783 -57.0546875 28.8515625 C-58.91360988 33.07638609 -59.13584227 36.6991123 -59.125 41.3125 C-59.12757813 42.40175781 -59.13015625 43.49101562 -59.1328125 44.61328125 C-59.10020863 48.0054661 -59.10020863 48.0054661 -58.27734375 51.265625 C-57.88567284 56.53939101 -59.57217722 60.55815284 -61.4375 65.4375 C-61.77587891 66.35982422 -62.11425781 67.28214844 -62.46289062 68.23242188 C-63.29480597 70.49382556 -64.14066475 72.74890488 -65 75 C-71.40669591 72.07399639 -74.3280455 65.74728264 -77.1171875 59.49609375 C-81.15694179 47.20369856 -80.69479086 31.60732373 -75 20 C-67.25275762 5.63691944 -56.51193462 -2.91625672 -41 -8 C-26.82677434 -11.41332867 -11.9357509 -8.11064378 0 0 Z " fill="#2099E5" transform="translate(364,416)"/>
<path d="M0 0 C6.15321287 4.35329346 9.76666697 10.06304649 13.421875 16.5625 C10.67345476 20.06910513 6.76252102 21.22675151 2.734375 22.75 C2.03248047 23.02263672 1.33058594 23.29527344 0.60742188 23.57617188 C-1.11836735 24.24535545 -2.84789459 24.90488475 -4.578125 25.5625 C-5.135 24.469375 -5.691875 23.37625 -6.265625 22.25 C-8.22985666 18.85348926 -9.85076324 17.07623207 -13.578125 15.5625 C-19.63251334 14.77649169 -25.49841401 14.73778702 -31.203125 17 C-38.09272901 24.43352011 -38.33185716 32.56574866 -37.96484375 42.2890625 C-37.50916104 48.89286815 -35.76227474 53.48235739 -30.953125 58.0625 C-27.26508069 60.39179115 -25.13961022 60.74778012 -20.765625 60.8125 C-19.72792969 60.83828125 -18.69023438 60.8640625 -17.62109375 60.890625 C-12.96653246 60.38872109 -10.44385059 58.58100069 -7.453125 55.0625 C-6.834375 54.2375 -6.215625 53.4125 -5.578125 52.5625 C-4.588125 51.5725 -3.598125 50.5825 -2.578125 49.5625 C3.361875 51.5425 9.301875 53.5225 15.421875 55.5625 C12.34384088 64.79660235 6.83937092 71.57613575 -1.578125 76.5625 C-12.09876929 81.44913806 -23.89114472 82.3527863 -35.015625 78.9375 C-45.411934 74.9603885 -52.68526731 67.95318993 -57.390625 57.9375 C-62.08381382 47.3360573 -62.7276177 32.3852422 -58.953125 21.375 C-53.42059064 9.01384805 -45.93421006 1.44532084 -33.3125 -3.4921875 C-22.02618626 -7.39402739 -10.42656679 -5.81360088 0 0 Z " fill="#101212" transform="translate(849.578125,541.4375)"/>
<path d="M0 0 C5.05746398 5.33084041 6.56324546 11.65521319 6.8125 18.875 C6.56958721 25.73323774 5.41795694 32.77571789 0.8515625 38.16015625 C-5.07224408 43.31717568 -9.91112698 43.8289411 -17.5546875 43.68359375 C-23.10393282 43.24768046 -25.652035 41.5200316 -29.4375 37.5625 C-33.61451265 31.76109354 -34.05166697 27.08521865 -34.0625 20.125 C-34.08699219 19.30837891 -34.11148438 18.49175781 -34.13671875 17.65039062 C-34.16771563 11.16687682 -32.72934486 5.81319273 -28.31054688 0.90942383 C-19.3482355 -7.14876911 -9.64986977 -5.6103894 0 0 Z " fill="#F2EFEA" transform="translate(668.6875,559.5625)"/>
<path d="M0 0 C4.21445364 1.91851994 7.30849089 4.1521586 9.59375 8.265625 C10.08875 12.720625 10.08875 12.720625 10.59375 17.265625 C-1.94625 17.265625 -14.48625 17.265625 -27.40625 17.265625 C-26.43136406 10.44142339 -25.78329303 7.35785718 -20.78515625 2.78125 C-14.56252252 -1.82427517 -7.32798936 -2.23646429 0 0 Z " fill="#F3F0EC" transform="translate(817.40625,410.734375)"/>
<path d="M0 0 C10.93496471 -0.02312297 21.86992366 -0.04091485 32.8049078 -0.05181217 C37.88191018 -0.0570411 42.95889589 -0.06413892 48.03588867 -0.07543945 C52.93120552 -0.08626799 57.82650629 -0.09227676 62.72183418 -0.09487724 C64.59382951 -0.09673155 66.46582391 -0.10035228 68.33781242 -0.10573006 C70.95040699 -0.11294004 73.56293427 -0.11399096 76.17553711 -0.11352539 C76.95740387 -0.11712067 77.73927063 -0.12071594 78.54483032 -0.12442017 C83.88594784 -0.11405216 83.88594784 -0.11405216 85 1 C85.25098924 4.47208807 85.18522096 7.9574062 85.1875 11.4375 C85.19974609 12.41783203 85.21199219 13.39816406 85.22460938 14.40820312 C85.22654297 15.34470703 85.22847656 16.28121094 85.23046875 17.24609375 C85.23457764 18.10904053 85.23868652 18.9719873 85.24291992 19.86108398 C85 22 85 22 83 24 C80.20263672 24.22705078 80.20263672 24.22705078 76.6796875 24.1953125 C74.79443359 24.18564453 74.79443359 24.18564453 72.87109375 24.17578125 C71.55238281 24.15902344 70.23367188 24.14226563 68.875 24.125 C67.53516279 24.11496983 66.19531848 24.10584404 64.85546875 24.09765625 C61.57013427 24.07402075 58.28515535 24.04107234 55 24 C55.00222061 25.13783432 55.00444122 26.27566864 55.00672913 27.44798279 C55.02695933 38.14630749 55.04197155 48.84462834 55.05181217 59.5429678 C55.05704131 65.04370862 55.06413951 70.54443405 55.07543945 76.04516602 C55.08626725 81.3489656 55.0922766 86.65275035 55.09487724 91.95656013 C55.09673169 93.98485612 55.10035267 96.01315126 55.10573006 98.04144096 C55.11293906 100.87196514 55.113991 103.70242718 55.11352539 106.53295898 C55.11712067 107.38028091 55.12071594 108.22760284 55.12442017 109.1006012 C55.11405216 114.88594784 55.11405216 114.88594784 54 116 C45.75 116 37.5 116 29 116 C29 85.31 29 54.62 29 23 C29.33 23 29.66 23 30 23 C30 53.36 30 83.72 30 115 C37.59 115 45.18 115 53 115 C53 84.31 53 53.62 53 22 C62.9 22 72.8 22 83 22 C83 15.07 83 8.14 83 1 C55.61 1 28.22 1 0 1 C0 0.67 0 0.34 0 0 Z " fill="#FDFDFB" transform="translate(541,506)"/>
<path d="M0 0 C0.33 0 0.66 0 1 0 C1 31.02 1 62.04 1 94 C-6.59 94 -14.18 94 -22 94 C-21.67 63.31 -21.34 32.62 -21 1 C-20.67 1 -20.34 1 -20 1 C-20 31.03 -20 61.06 -20 92 C-13.73 92 -7.46 92 -1 92 C-1.00785522 87.87286499 -1.00785522 87.87286499 -1.01586914 83.66235352 C-1.03240391 74.59391698 -1.04347077 65.5254798 -1.05181217 56.4570322 C-1.05704131 50.95629138 -1.06413951 45.45556595 -1.07543945 39.95483398 C-1.08626725 34.6510344 -1.0922766 29.34724965 -1.09487724 24.04343987 C-1.09673169 22.01514388 -1.10035267 19.98684874 -1.10573006 17.95855904 C-1.11293906 15.12803486 -1.113991 12.29757282 -1.11352539 9.46704102 C-1.11712067 8.61971909 -1.12071594 7.77239716 -1.12442017 6.8993988 C-1.11405216 1.11405216 -1.11405216 1.11405216 0 0 Z " fill="#080909" transform="translate(593,527)"/>
<path d="M0 0 C2.5654594 2.5654594 2.54046087 4.47686668 3 8 C3.99 8 4.98 8 6 8 C6.33 9.32 6.66 10.64 7 12 C6.34 12 5.68 12 5 12 C10.65304673 23.27602407 16.70397097 33.28497278 26 42 C26.99 41.34 27.98 40.68 29 40 C29 41.32 29 42.64 29 44 C30.98 44.33 32.96 44.66 35 45 C35.66 43.68 36.32 42.36 37 41 C35.02 41 33.04 41 31 41 C31 40.34 31 39.68 31 39 C31.66 39 32.32 39 33 39 C32.79375 38.13375 32.5875 37.2675 32.375 36.375 C32 33 32 33 33.21875 30.15625 C34.38488964 26.93534722 34.38488964 26.93534722 32.4453125 24.0078125 C31.67960937 23.05648438 30.91390625 22.10515625 30.125 21.125 C28.98417969 19.67480469 28.98417969 19.67480469 27.8203125 18.1953125 C27.21960938 17.47085937 26.61890625 16.74640625 26 16 C26.33 15.34 26.66 14.68 27 14 C28.31772362 15.59987856 29.62901137 17.20505966 30.9375 18.8125 C31.66839844 19.70582031 32.39929688 20.59914063 33.15234375 21.51953125 C35 24 35 24 36 27 C36.66 27 37.32 27 38 27 C38 27.66 38 28.32 38 29 C38.639375 29.2475 39.27875 29.495 39.9375 29.75 C42 31 42 31 42.70483398 32.80761719 C43.05286927 35.39269314 42.6437777 36.87492087 41.78515625 39.328125 C41.51123047 40.12734375 41.23730469 40.9265625 40.95507812 41.75 C40.66052734 42.575 40.36597656 43.4 40.0625 44.25 C39.77181641 45.09046875 39.48113281 45.9309375 39.18164062 46.796875 C38.46378767 48.86805731 37.73633881 50.93533262 37 53 C19.0506651 41.42397967 6.07921077 24.51733636 0 4 C0 2.68 0 1.36 0 0 Z " fill="#1D95E4" transform="translate(249,479)"/>
<path d="M0 0 C0.66 0.33 1.32 0.66 2 1 C2 20.47 2 39.94 2 60 C-5.26 60 -12.52 60 -20 60 C-20 41.52 -20 23.04 -20 4 C-19.67 4 -19.34 4 -19 4 C-18.2283821 7.41799762 -17.87742734 10.5643815 -17.88647461 14.06567383 C-17.88655014 15.04631302 -17.88662567 16.02695221 -17.88670349 17.03730774 C-17.89186478 18.0833165 -17.89702606 19.12932526 -17.90234375 20.20703125 C-17.9037587 21.28756271 -17.90517365 22.36809418 -17.90663147 23.48136902 C-17.9122192 26.92510776 -17.9247695 30.36878098 -17.9375 33.8125 C-17.94251658 36.15038968 -17.94707921 38.48828039 -17.95117188 40.82617188 C-17.96218462 46.55080642 -17.97944088 52.2753921 -18 58 C-12.06 58 -6.12 58 0 58 C0 38.86 0 19.72 0 0 Z " fill="#1F1F1E" transform="translate(943,561)"/>
<path d="M0 0 C0.98033203 -0.00128906 1.96066406 -0.00257813 2.97070312 -0.00390625 C4.51854492 0.00189453 4.51854492 0.00189453 6.09765625 0.0078125 C7.12568359 0.00394531 8.15371094 0.00007813 9.21289062 -0.00390625 C10.68532227 -0.00197266 10.68532227 -0.00197266 12.1875 0 C13.54476196 0.00169189 13.54476196 0.00169189 14.92944336 0.00341797 C17.16015625 0.1328125 17.16015625 0.1328125 19.16015625 1.1328125 C19.49015625 14.9928125 19.82015625 28.8528125 20.16015625 43.1328125 C21.48015625 42.4728125 22.80015625 41.8128125 24.16015625 41.1328125 C22.51015625 43.1128125 20.86015625 45.0928125 19.16015625 47.1328125 C17.16015625 45.1328125 17.16015625 45.1328125 16.91964722 43.25985718 C16.92630905 42.12068344 16.92630905 42.12068344 16.93310547 40.95849609 C16.93325653 40.09775482 16.93340759 39.23701355 16.93356323 38.35018921 C16.9438858 37.41993927 16.95420837 36.48968933 16.96484375 35.53125 C16.96767365 34.57964996 16.97050354 33.62804993 16.97341919 32.64761353 C16.98463636 29.60088658 17.00974362 26.55445096 17.03515625 23.5078125 C17.04518407 21.44531674 17.05431026 19.38281638 17.0625 17.3203125 C17.08288125 12.25760929 17.12202694 7.19553794 17.16015625 2.1328125 C9.90015625 2.1328125 2.64015625 2.1328125 -4.83984375 2.1328125 C-4.83984375 41.0728125 -4.83984375 80.0128125 -4.83984375 120.1328125 C-5.16984375 120.1328125 -5.49984375 120.1328125 -5.83984375 120.1328125 C-5.86317321 104.63441394 -5.88082316 89.13601668 -5.89165592 73.63760471 C-5.89681878 66.44190955 -5.90386128 59.24622528 -5.9152832 52.05053711 C-5.92523035 45.78096556 -5.93169725 39.51140189 -5.93393224 33.24182266 C-5.9352393 29.92015629 -5.93884372 26.59851784 -5.94557381 23.27685738 C-5.95278003 19.57461303 -5.95383487 15.87241619 -5.95336914 12.17016602 C-5.95696442 11.06102341 -5.96055969 9.9518808 -5.96426392 8.80912781 C-5.96288925 7.80646881 -5.96151459 6.80380981 -5.96009827 5.77076721 C-5.96102006 4.89414208 -5.96194185 4.01751696 -5.96289158 3.11432743 C-5.719998 -0.79713738 -3.36477265 0.00419959 0 0 Z " fill="#F8F7F6" transform="translate(873.83984375,500.8671875)"/>
<path d="M0 0 C0.33 0 0.66 0 1 0 C1 27.39 1 54.78 1 83 C7.6 83 14.2 83 21 83 C20.96519531 78.07126953 20.96519531 78.07126953 20.9296875 73.04296875 C20.91409664 69.86580797 20.90194866 66.68865142 20.89013672 63.51147461 C20.88006994 61.30084327 20.86641552 59.09022528 20.84912109 56.87963867 C20.82490262 53.70488189 20.81352373 50.53030094 20.8046875 47.35546875 C20.79436493 46.36475876 20.78404236 45.37404877 20.77340698 44.35331726 C20.77325592 43.43258926 20.77310486 42.51186127 20.77294922 41.56323242 C20.768508 40.7527092 20.76406677 39.94218597 20.75949097 39.10710144 C21 37 21 37 23 34 C23 50.83 23 67.66 23 85 C15.41 85 7.82 85 0 85 C0 56.95 0 28.9 0 0 Z " fill="#2B2B2A" transform="translate(675,394)"/>
<path d="M0 0 C6.93 0 13.86 0 21 0 C21 18.48 21 36.96 21 56 C19.0934153 52.1868306 18.75262918 50.97942314 18.77294922 46.95605469 C18.77310028 45.95531921 18.77325134 44.95458374 18.77340698 43.92352295 C18.78372955 42.85047913 18.79405212 41.7774353 18.8046875 40.671875 C18.8075174 39.56773254 18.81034729 38.46359009 18.81326294 37.32598877 C18.82445511 33.8005488 18.84955825 30.27536315 18.875 26.75 C18.88503103 24.35937867 18.89415667 21.96875336 18.90234375 19.578125 C18.92439135 13.71865205 18.95891489 7.85936914 19 2 C13.06 2 7.12 2 1 2 C1 21.8 1 41.6 1 62 C0.67 62 0.34 62 0 62 C0 41.54 0 21.08 0 0 Z " fill="#000000" transform="translate(706,538)"/>
<path d="M0 0 C1.50514219 0.01496184 3.01023327 0.03564243 4.51524353 0.06056213 C5.33468948 0.07016968 6.15413544 0.07977722 6.99841309 0.0896759 C9.72017186 0.12278551 12.44177603 0.16307191 15.16343689 0.2033844 C17.0453028 0.22767385 18.92717451 0.25151798 20.80905151 0.27493286 C25.77231935 0.33789083 30.73548511 0.40692407 35.69865417 0.47718811 C40.75913324 0.54776605 45.81968493 0.61264599 50.88023376 0.67799377 C60.81716252 0.80715699 70.75399281 0.94273317 80.69078064 1.08229065 C80.69078064 1.41229065 80.69078064 1.74229065 80.69078064 2.08229065 C53.30078064 2.08229065 25.91078064 2.08229065 -2.30921936 2.08229065 C-2.30921936 8.68229065 -2.30921936 15.28229065 -2.30921936 22.08229065 C7.59078064 22.08229065 17.49078064 22.08229065 27.69078064 22.08229065 C27.36078064 22.74229065 27.03078064 23.40229065 26.69078064 24.08229065 C22.43663441 24.10694687 18.18252566 24.12512963 13.92832947 24.13722229 C12.48007991 24.14226166 11.03183547 24.14909318 9.58360291 24.1577301 C7.50603476 24.16981312 5.42853367 24.17552276 3.35093689 24.1799469 C2.09933777 24.18518372 0.84773865 24.19042053 -0.44178772 24.19581604 C-3.30921936 24.08229065 -3.30921936 24.08229065 -4.30921936 23.08229065 C-4.40838506 21.45971521 -4.44001713 19.83289234 -4.44203186 18.20729065 C-4.44332092 17.2224469 -4.44460999 16.23760315 -4.44593811 15.22291565 C-4.44207092 14.1865094 -4.43820374 13.15010315 -4.43421936 12.08229065 C-4.44002014 10.52768127 -4.44002014 10.52768127 -4.44593811 8.94166565 C-4.44464905 7.9568219 -4.44335999 6.97197815 -4.44203186 5.95729065 C-4.44090393 5.04721252 -4.439776 4.1371344 -4.43861389 3.19947815 C-4.22360865 -0.31849449 -3.63532311 0.0903999 0 0 Z " fill="#C6C5C3" transform="translate(543.3092193603516,505.91770935058594)"/>
<path d="M0 0 C3.4016687 2.93780479 4.82268677 6.10131298 5.24050903 10.57539368 C5.23606781 11.48806503 5.23162659 12.40073639 5.22705078 13.34106445 C5.22682419 14.90211662 5.22682419 14.90211662 5.22659302 16.4947052 C5.21627045 17.6063353 5.20594788 18.71796539 5.1953125 19.86328125 C5.1924826 21.01040085 5.18965271 22.15752045 5.18673706 23.33940125 C5.17555697 26.99720768 5.15045595 30.65476778 5.125 34.3125 C5.11496741 36.79491833 5.10584205 39.27734051 5.09765625 41.75976562 C5.07562467 47.83993842 5.04110935 53.91992747 5 60 C15.395 59.505 15.395 59.505 26 59 C26 59.99 26 60.98 26 62 C18.41 62 10.82 62 3 62 C2.98018066 60.33501465 2.96036133 58.6700293 2.93994141 56.95458984 C2.8638068 50.77084357 2.7751009 44.58733018 2.68261719 38.40380859 C2.64328912 35.72868879 2.60950232 33.05366173 2.578125 30.37841797 C2.53240435 26.53073968 2.47442007 22.6834106 2.4140625 18.8359375 C2.40251129 17.64197357 2.39096008 16.44800964 2.37905884 15.21786499 C2.3492543 13.53680161 2.3492543 13.53680161 2.31884766 11.82177734 C2.30552399 10.84026703 2.29220032 9.85875671 2.2784729 8.84750366 C1.96777442 5.67047976 1.10945325 2.98414079 0 0 Z " fill="#282827" transform="translate(729,417)"/>
<path d="M0 0 C6.93 0 13.86 0 21 0 C21 11.88 21 23.76 21 36 C20.34 35.67 19.68 35.34 19 35 C19 24.11 19 13.22 19 2 C13.06 2 7.12 2 1 2 C1 17.51 1 33.02 1 49 C0.67 49 0.34 49 0 49 C0 32.83 0 16.66 0 0 Z " fill="#010101" transform="translate(759,538)"/>
<path d="M0 0 C0.33 0 0.66 0 1 0 C1.33 6.27 1.66 12.54 2 19 C3.65 19 5.3 19 7 19 C7 18.34 7 17.68 7 17 C6.01 17.33 5.02 17.66 4 18 C4.33 17.01 4.66 16.02 5 15 C5.66 14.67 6.32 14.34 7 14 C7.33 13.01 7.66 12.02 8 11 C7.01 10.67 6.02 10.34 5 10 C6.65 10.33 8.3 10.66 10 11 C10.33 12.98 10.66 14.96 11 17 C10.34 17.33 9.68 17.66 9 18 C9 19.98 9 21.96 9 24 C7.68 24.33 6.36 24.66 5 25 C4.8453125 26.6396875 4.8453125 26.6396875 4.6875 28.3125 C3.98885988 32.05975155 3.68602762 32.65962741 1 35 C-0.68081636 27.95866506 -1.28586979 21.35259075 -1.1875 14.125 C-1.18685547 13.20203125 -1.18621094 12.2790625 -1.18554688 11.328125 C-1.15972419 7.36864607 -1.09520822 3.82694703 0 0 Z " fill="#1894E5" transform="translate(247,443)"/>
<path d="M0 0 C0.33 0 0.66 0 1 0 C0.98428955 0.61818604 0.9685791 1.23637207 0.95239258 1.87329102 C0.60084851 17.85593778 0.54809888 32.38987973 8.109375 46.92578125 C8.55023438 47.95251953 8.55023438 47.95251953 9 49 C8.67 49.66 8.34 50.32 8 51 C6.02 47.04 4.04 43.08 2 39 C1.01 39.495 1.01 39.495 0 40 C-1.32 39.01 -2.64 38.02 -4 37 C-3.34 37 -2.68 37 -2 37 C-0.74797241 33.24391722 -1.18480174 29.99701094 -1.5 26.125 C-2.11694679 17.39921026 -2.38325915 8.50298391 0 0 Z " fill="#138CE5" transform="translate(266,442)"/>
<path d="M0 0 C2.5654594 2.5654594 2.54046087 4.47686668 3 8 C3.99 8 4.98 8 6 8 C6.33 9.32 6.66 10.64 7 12 C6.34 12 5.68 12 5 12 C11.64694455 25.25853301 19.22885358 35.67765135 30 46 C25.79877458 46 24.83141388 44.29772255 21.875 41.375 C11.74101768 31.13633476 0 14.80095647 0 0 Z " fill="#1088E4" transform="translate(249,479)"/>
<path d="M0 0 C0.33 0 0.66 0 1 0 C1.48333495 12.74517092 1.52665861 24.90688284 -3 37 C-3.99 37.495 -3.99 37.495 -5 38 C-4.67 35.36 -4.34 32.72 -4 30 C-5.32 29.34 -6.64 28.68 -8 28 C-7.67 27.67 -7.34 27.34 -7 27 C-5.35 27 -3.7 27 -2 27 C-1.67 23.37 -1.34 19.74 -1 16 C-2.65 16.66 -4.3 17.32 -6 18 C-6 15 -6 15 -4 12 C-3.01 12 -2.02 12 -1 12 C-0.67 8.04 -0.34 4.08 0 0 Z " fill="#148FE5" transform="translate(422,450)"/>
<path d="M0 0 C1.43410153 3.78819273 0.51009497 6.06521279 -0.9375 9.75 C-1.31777344 10.73484375 -1.69804687 11.7196875 -2.08984375 12.734375 C-2.39019531 13.48203125 -2.69054687 14.2296875 -3 15 C-6.59584747 13.55069329 -8.18832656 11.77247922 -10.3125 8.5625 C-10.84488281 7.78003906 -11.37726563 6.99757813 -11.92578125 6.19140625 C-13 4 -13 4 -12 1 C-11.7525 1.61875 -11.505 2.2375 -11.25 2.875 C-9.79371361 5.35068687 -8.62187494 5.95125002 -6 7 C-5.67 6.01 -5.34 5.02 -5 4 C-3.68 4 -2.36 4 -1 4 C-0.67 2.68 -0.34 1.36 0 0 Z " fill="#1890E5" transform="translate(302,476)"/>
<path d="M0 0 C-0.99 0.66 -1.98 1.32 -3 2 C-2.67 2.66 -2.34 3.32 -2 4 C-2.33 4.66 -2.66 5.32 -3 6 C-4.32 5.67 -5.64 5.34 -7 5 C-7 4.34 -7 3.68 -7 3 C-10.63 4.65 -14.26 6.3 -18 8 C-17.67 9.32 -17.34 10.64 -17 12 C-17.99 12.495 -17.99 12.495 -19 13 C-19.33 12.34 -19.66 11.68 -20 11 C-20.99 11.99 -21.98 12.98 -23 14 C-23 13.01 -23 12.02 -23 11 C-24.65 12.32 -26.3 13.64 -28 15 C-28.66 14.34 -29.32 13.68 -30 13 C-21.52671223 6.82566627 -10.78075352 -0.29137172 0 0 Z " fill="#148CE5" transform="translate(314,371)"/>
<path d="M0 0 C0.66 0.33 1.32 0.66 2 1 C1.54171792 3.67331214 1.00162068 5.99618664 -0.0625 8.5 C-1.15746868 10.94539786 -1.15746868 10.94539786 -0.9375 13.5 C-1.01803967 16.7215869 -2.2813163 18.31885342 -4 21 C-4.69579454 23.19130534 -4.69579454 23.19130534 -5 25 C-5.66 24.67 -6.32 24.34 -7 24 C-6.40400435 21.31045617 -5.79849172 18.62364177 -5.1875 15.9375 C-5.02185547 15.18533203 -4.85621094 14.43316406 -4.68554688 13.65820312 C-3.57560546 8.82053394 -2.08788622 4.50480895 0 0 Z " fill="#191A18" transform="translate(291,530)"/>
<path d="M0 0 C0.33 0 0.66 0 1 0 C1.33 5.28 1.66 10.56 2 16 C2.66 15.34 3.32 14.68 4 14 C4.99 14.66 5.98 15.32 7 16 C7 16.66 7 17.32 7 18 C6.01 18 5.02 18 4 18 C4.66 19.65 5.32 21.3 6 23 C5.34 23.66 4.68 24.32 4 25 C3.34 24.34 2.68 23.68 2 23 C1.01 22.67 0.02 22.34 -1 22 C-0.67 14.74 -0.34 7.48 0 0 Z " fill="#128EE5" transform="translate(404,449)"/>
<path d="M0 0 C0.66 0.33 1.32 0.66 2 1 C0.515 3.475 0.515 3.475 -1 6 C-0.34 6 0.32 6 1 6 C1 5.01 1 4.02 1 3 C1.66 3 2.32 3 3 3 C2.67 4.32 2.34 5.64 2 7 C1.34 7 0.68 7 0 7 C-0.144375 7.61875 -0.28875 8.2375 -0.4375 8.875 C-1 11 -1 11 -2 13 C-2.99 13 -3.98 13 -5 13 C-5.99 14.98 -6.98 16.96 -8 19 C-9 16 -9 16 -7.890625 13.22265625 C-7.34921875 12.17980469 -6.8078125 11.13695312 -6.25 10.0625 C-5.71890625 9.02222656 -5.1878125 7.98195313 -4.640625 6.91015625 C-3.23962533 4.4250497 -1.77837103 2.22296379 0 0 Z " fill="#1890E5" transform="translate(262,406)"/>
<path d="M0 0 C2.97 0.99 5.94 1.98 9 3 C9.33 2.34 9.66 1.68 10 1 C10 1.99 10 2.98 10 4 C7.69 4.33 5.38 4.66 3 5 C5.97 5.495 5.97 5.495 9 6 C5.9530371 7.69433918 3.17178534 8.49467112 -0.25 9.125 C-1.58804687 9.37636719 -1.58804687 9.37636719 -2.953125 9.6328125 C-3.62859375 9.75398438 -4.3040625 9.87515625 -5 10 C-4.52949219 9.40703125 -4.05898438 8.8140625 -3.57421875 8.203125 C-1.71061022 5.59499792 -0.90368974 3.0586422 0 0 Z " fill="#1793E4" transform="translate(315,382)"/>
<path d="M0 0 C0.99 0.33 1.98 0.66 3 1 C3.66 4.3 4.32 7.6 5 11 C4.01 11.33 3.02 11.66 2 12 C1.26676204 14.01508358 1.26676204 14.01508358 1 16 C0.34 15.67 -0.32 15.34 -1 15 C-0.91621094 14.38511719 -0.83242187 13.77023437 -0.74609375 13.13671875 C-0.64425781 12.32847656 -0.54242188 11.52023437 -0.4375 10.6875 C-0.28087891 9.48673828 -0.28087891 9.48673828 -0.12109375 8.26171875 C0.14755178 5.83182884 0.14755178 5.83182884 -1 3 C-0.67 2.01 -0.34 1.02 0 0 Z " fill="#E8E6E2" transform="translate(236,566)"/>
<path d="M0 0 C1.43410153 3.78819273 0.51009497 6.06521279 -0.9375 9.75 C-1.31777344 10.73484375 -1.69804687 11.7196875 -2.08984375 12.734375 C-2.39019531 13.48203125 -2.69054687 14.2296875 -3 15 C-1.68 15.33 -0.36 15.66 1 16 C0.34 16 -0.32 16 -1 16 C-1 17.32 -1 18.64 -1 20 C-1.99 20 -2.98 20 -4 20 C-4.33 19.34 -4.66 18.68 -5 18 C-5.33 18.66 -5.66 19.32 -6 20 C-6.66 19.67 -7.32 19.34 -8 19 C-7.67386719 18.29875 -7.34773438 17.5975 -7.01171875 16.875 C-4.44978049 11.31279776 -2.0665852 5.76468504 0 0 Z " fill="#178FE6" transform="translate(402,473)"/>
<path d="M0 0 C0.33 0.66 0.66 1.32 1 2 C1.66 2 2.32 2 3 2 C2.979375 2.804375 2.95875 3.60875 2.9375 4.4375 C2.70366379 6.93354885 2.70366379 6.93354885 4 8 C4.07319621 10.69654854 4.09242537 13.36691458 4.0625 16.0625 C4.05798828 16.82111328 4.05347656 17.57972656 4.04882812 18.36132812 C4.0370068 20.24091871 4.01907078 22.12046899 4 24 C1.92329908 22.31011183 1.07665372 21.40213987 0.56762695 18.73168945 C0.54144287 17.86761475 0.51525879 17.00354004 0.48828125 16.11328125 C0.45283203 15.17548828 0.41738281 14.23769531 0.38085938 13.27148438 C0.35830078 12.29501953 0.33574219 11.31855469 0.3125 10.3125 C0.27833984 9.32443359 0.24417969 8.33636719 0.20898438 7.31835938 C0.12649462 4.87901947 0.05734932 2.44003937 0 0 Z " fill="#1E1F1D" transform="translate(487,476)"/>
<path d="M0 0 C1.41702513 0.14230808 2.8336096 0.28900746 4.25 0.4375 C5.43335938 0.55931641 5.43335938 0.55931641 6.640625 0.68359375 C8.82364639 0.97634993 10.8773182 1.42064419 13 2 C13 2.66 13 3.32 13 4 C13.99 4 14.98 4 16 4 C16 4.66 16 5.32 16 6 C10.72 5.34 5.44 4.68 0 4 C0 2.68 0 1.36 0 0 Z " fill="#E6E3DF" transform="translate(370,539)"/>
<path d="M0 0 C1.99267584 1.86192283 2.92846769 3.38992958 3.24755859 6.11132812 C3.29513603 8.66311554 3.26098224 11.19884745 3.1875 13.75 C3.17396484 14.63816406 3.16042969 15.52632813 3.14648438 16.44140625 C3.11121309 18.62822578 3.06192752 20.81379966 3 23 C0.95529751 21.33263592 0.07433079 20.47502434 -0.34057617 17.82348633 C-0.32486572 17.00130615 -0.30915527 16.17912598 -0.29296875 15.33203125 C-0.28330078 14.43935547 -0.27363281 13.54667969 -0.26367188 12.62695312 C-0.23853516 11.69818359 -0.21339844 10.76941406 -0.1875 9.8125 C-0.17396484 8.87212891 -0.16042969 7.93175781 -0.14648438 6.96289062 C-0.11113096 4.64134962 -0.06178674 2.32096347 0 0 Z " fill="#E7E4E0" transform="translate(540,411)"/>
<path d="M0 0 C0 0.33 0 0.66 0 1 C-6.6 1.33 -13.2 1.66 -20 2 C-20 1.01 -20 0.02 -20 -1 C-12.77854667 -2.40906406 -6.93852785 -2.26564175 0 0 Z " fill="#191B1A" transform="translate(228,387)"/>
<path d="M0 0 C1.32 0.33 2.64 0.66 4 1 C3.01 1 2.02 1 1 1 C1.185625 2.2375 1.37125 3.475 1.5625 4.75 C1.94809389 7.85647473 1.93863821 9.99635772 1 13 C0.61314424 15.66156764 0.31171292 18.32817499 0 21 C-0.99 21 -1.98 21 -3 21 C-2.01 14.07 -1.02 7.14 0 0 Z " fill="#EAE8E5" transform="translate(424,584)"/>
<path d="M0 0 C0.33 0.66 0.66 1.32 1 2 C0.36474424 3.67889021 -0.30686092 5.34416775 -1 7 C-1.37309899 8.65821773 -1.70700977 10.32577014 -2 12 C-2.33333333 13.66666667 -2.66666667 15.33333333 -3 17 C-4.32 17.33 -5.64 17.66 -7 18 C-6.41012695 15.37102265 -5.80395811 12.74774906 -5.1875 10.125 C-5.02185547 9.37863281 -4.85621094 8.63226562 -4.68554688 7.86328125 C-3.33984375 2.2265625 -3.33984375 2.2265625 0 0 Z " fill="#EBEAE7" transform="translate(372,559)"/>
<path d="M0 0 C1.97119141 -0.34057617 1.97119141 -0.34057617 4.3515625 -0.29296875 C5.62773438 -0.2784668 5.62773438 -0.2784668 6.9296875 -0.26367188 C7.81914063 -0.23853516 8.70859375 -0.21339844 9.625 -0.1875 C10.97078125 -0.16719727 10.97078125 -0.16719727 12.34375 -0.14648438 C14.56309789 -0.11106925 16.78125188 -0.06168461 19 0 C18.67 0.66 18.34 1.32 18 2 C15.29283758 2.90238747 13.76223232 3.11851302 10.98828125 3.09765625 C9.85229492 3.09282227 9.85229492 3.09282227 8.69335938 3.08789062 C7.90767578 3.07951172 7.12199219 3.07113281 6.3125 3.0625 C5.51521484 3.05798828 4.71792969 3.05347656 3.89648438 3.04882812 C1.93095743 3.0370585 -0.03453085 3.01912348 -2 3 C-1.34 2.01 -0.68 1.02 0 0 Z " fill="#E4E2DE" transform="translate(596,481)"/>
<path d="M0 0 C5.61 0 11.22 0 17 0 C17 0.66 17 1.32 17 2 C16.01 2 15.02 2 14 2 C14 2.66 14 3.32 14 4 C13.34 4 12.68 4 12 4 C12.33 5.32 12.66 6.64 13 8 C12.34 8 11.68 8 11 8 C11 6.35 11 4.7 11 3 C10.34 3 9.68 3 9 3 C9 2.34 9 1.68 9 1 C6.03 1 3.06 1 0 1 C0 0.67 0 0.34 0 0 Z " fill="#128BE4" transform="translate(327,368)"/>
<path d="M0 0 C2 4 2 4 2 7 C2.66 7 3.32 7 4 7 C4 6.34 4 5.68 4 5 C5.65 5 7.3 5 9 5 C8.67 5.61875 8.34 6.2375 8 6.875 C6.85806765 8.91018344 6.85806765 8.91018344 7 11 C6.34 11 5.68 11 5 11 C5 10.01 5 9.02 5 8 C4.01 8 3.02 8 2 8 C1.67 9.65 1.34 11.3 1 13 C0.67 13 0.34 13 0 13 C0 8.71 0 4.42 0 0 Z " fill="#118FE5" transform="translate(366,451)"/>
<path d="M0 0 C8.57142857 -0.28571429 8.57142857 -0.28571429 12 2 C11.67 2.66 11.34 3.32 11 4 C2.42857143 4.28571429 2.42857143 4.28571429 -1 2 C-0.67 1.34 -0.34 0.68 0 0 Z " fill="#212321" transform="translate(330,445)"/>
<path d="M0 0 C0.66 0.33 1.32 0.66 2 1 C1.41992188 1.64066406 0.83984375 2.28132812 0.2421875 2.94140625 C-4.24094975 7.90540806 -8.67445028 12.89806956 -13 18 C-13.33 17.01 -13.66 16.02 -14 15 C-12.98679687 14.00419922 -12.98679687 14.00419922 -11.953125 12.98828125 C-11.06109375 12.10527344 -10.1690625 11.22226562 -9.25 10.3125 C-8.36828125 9.44238281 -7.4865625 8.57226562 -6.578125 7.67578125 C-4.21194702 5.21997532 -2.08107444 2.69858952 0 0 Z " fill="#080808" transform="translate(383,665)"/>
<path d="M0 0 C0.99 0.33 1.98 0.66 3 1 C2.938125 2.258125 2.87625 3.51625 2.8125 4.8125 C2.76367078 8.16958979 2.76367078 8.16958979 4.5 11 C4.995 11.33 5.49 11.66 6 12 C3.03 11.505 3.03 11.505 0 11 C-0.84098656 6.98195309 -1.05404945 3.98196457 0 0 Z " fill="#222322" transform="translate(353,566)"/>
<path d="M0 0 C0.7734375 0.00386719 1.546875 0.00773438 2.34375 0.01171875 C4.5 0.3125 4.5 0.3125 7.5 2.3125 C4.61584117 3.75457941 2.08278472 3.40644887 -1.125 3.375 C-2.31351563 3.36597656 -3.50203125 3.35695313 -4.7265625 3.34765625 C-5.64179687 3.33605469 -6.55703125 3.32445312 -7.5 3.3125 C-5.13249637 0.43659014 -3.69770505 -0.08011694 0 0 Z " fill="#212120" transform="translate(653.5,535.6875)"/>
<path d="M0 0 C0.66 0.66 1.32 1.32 2 2 C1.649375 2.886875 1.29875 3.77375 0.9375 4.6875 C-0.03558913 8.12574826 0.24866496 9.61899233 1 13 C0.34 13.66 -0.32 14.32 -1 15 C-3 13 -3 13 -3.046875 10.9765625 C-2.94890625 10.20054687 -2.8509375 9.42453125 -2.75 8.625 C-2.66234375 7.85414063 -2.5746875 7.08328125 -2.484375 6.2890625 C-1.98335114 3.9213207 -1.17347456 2.10648302 0 0 Z " fill="#171817" transform="translate(769,418)"/>
<path d="M0 0 C0.33 0 0.66 0 1 0 C1.50643553 2.22771342 2.0048962 4.45724076 2.5 6.6875 C2.7784375 7.92886719 3.056875 9.17023437 3.34375 10.44921875 C3.89354126 13.42398218 4.13795705 15.99368602 4 19 C1 17 1 17 0.5234375 15.046875 C0.47445312 14.28890625 0.42546875 13.5309375 0.375 12.75 C0.1586175 9.95055135 -0.12085558 7.33529431 -0.625 4.5625 C-1 2 -1 2 0 0 Z " fill="#E3E2E0" transform="translate(241,578)"/>
<path d="M0 0 C0.66 0 1.32 0 2 0 C4 3 4 3 3.75 6.625 C3.5025 7.73875 3.255 8.8525 3 10 C2.01 10.495 2.01 10.495 1 11 C1 9.68 1 8.36 1 7 C-0.98 7.99 -0.98 7.99 -3 9 C-2.5359375 7.88625 -2.5359375 7.88625 -2.0625 6.75 C-1.1905075 4.49307824 -0.52332993 2.3549847 0 0 Z " fill="#1792E4" transform="translate(379,466)"/>
<path d="M0 0 C0 4.62 0 9.24 0 14 C-0.66 14 -1.32 14 -2 14 C-2.33 14.99 -2.66 15.98 -3 17 C-3 11.72 -3 6.44 -3 1 C-1 0 -1 0 0 0 Z " fill="#191B19" transform="translate(640,414)"/>
<path d="M0 0 C0.99 0.33 1.98 0.66 3 1 C2.52060632 5.71403788 2.03165952 9.66579301 0 14 C-0.99 14 -1.98 14 -3 14 C-2.01 9.38 -1.02 4.76 0 0 Z " fill="#E3E2DE" transform="translate(696,585)"/>
<path d="M0 0 C0.9075 0.185625 1.815 0.37125 2.75 0.5625 C5.68314324 0.95734621 7.2644657 0.94691572 10 0 C6.7129243 3.81300782 3.60272162 5.22972246 -1 7 C-0.67 4.69 -0.34 2.38 0 0 Z " fill="#1C8EE3" transform="translate(354,497)"/>
<path d="M0 0 C0.99 0 1.98 0 3 0 C3 3.96 3 7.92 3 12 C2.67 12 2.34 12 2 12 C1.67 13.65 1.34 15.3 1 17 C0.67 17 0.34 17 0 17 C0 11.39 0 5.78 0 0 Z " fill="#191A19" transform="translate(145,479)"/>
<path d="M0 0 C0.33 0 0.66 0 1 0 C1.06058594 0.89203125 1.12117187 1.7840625 1.18359375 2.703125 C1.26738281 3.87359375 1.35117187 5.0440625 1.4375 6.25 C1.51871094 7.41015625 1.59992187 8.5703125 1.68359375 9.765625 C1.93247787 12.30977376 2.28114942 14.55953248 3 17 C1.02 16.34 -0.96 15.68 -3 15 C-2.52433594 14.18789063 -2.52433594 14.18789063 -2.0390625 13.359375 C-0.81692026 10.5842851 -0.59056564 8.26791902 -0.375 5.25 C-0.30023437 4.26515625 -0.22546875 3.2803125 -0.1484375 2.265625 C-0.09945312 1.51796875 -0.05046875 0.7703125 0 0 Z " fill="#2B2C2A" transform="translate(810,575)"/>
<path d="M0 0 C0.33 0 0.66 0 1 0 C1 5.28 1 10.56 1 16 C0.01 16 -0.98 16 -2 16 C-2 12.04 -2 8.08 -2 4 C-1.34 4 -0.68 4 0 4 C0 2.68 0 1.36 0 0 Z " fill="#E5E3DF" transform="translate(788,568)"/>
<path d="M0 0 C0.33 0 0.66 0 1 0 C1.22181406 2.43695715 1.42791119 4.873526 1.625 7.3125 C1.68945312 8.00279297 1.75390625 8.69308594 1.8203125 9.40429688 C2.11802847 13.2559972 2.20763723 14.68854416 0 18 C-0.36122881 16.68942607 -0.71380311 15.37646376 -1.0625 14.0625 C-1.35833984 12.96615234 -1.35833984 12.96615234 -1.66015625 11.84765625 C-1.77230469 11.23792969 -1.88445313 10.62820313 -2 10 C-1.67 9.67 -1.34 9.34 -1 9 C-0.76807135 7.48530552 -0.58784762 5.96245438 -0.4375 4.4375 C-0.35371094 3.61121094 -0.26992188 2.78492188 -0.18359375 1.93359375 C-0.12300781 1.29550781 -0.06242188 0.65742187 0 0 Z " fill="#DDDAD7" transform="translate(612,576)"/>
<path d="M0 0 C1.32 0.66 2.64 1.32 4 2 C1.36 2.33 -1.28 2.66 -4 3 C-4.33 3.99 -4.66 4.98 -5 6 C-6.98 6 -8.96 6 -11 6 C-11 5.01 -11 4.02 -11 3 C-5.555 2.505 -5.555 2.505 0 2 C0 1.34 0 0.68 0 0 Z " fill="#181919" transform="translate(441,576)"/>
<path d="M0 0 C0.99 0 1.98 0 3 0 C2.53411505 5.70709064 1.06242216 9.15939723 -2 14 C-3.49341969 11.01316063 -2.40648676 9.04839022 -1.5625 5.875 C-1.27503906 4.77929688 -0.98757813 3.68359375 -0.69140625 2.5546875 C-0.46324219 1.71164062 -0.23507812 0.86859375 0 0 Z " fill="#20201F" transform="translate(332,507)"/>
<path d="M0 0 C2.5654594 2.5654594 2.54046087 4.47686668 3 8 C2.01 8 1.02 8 0 8 C-0.12375 8.969375 -0.2475 9.93875 -0.375 10.9375 C-0.58125 11.948125 -0.7875 12.95875 -1 14 C-1.99 14.495 -1.99 14.495 -3 15 C-2.01 10.05 -1.02 5.1 0 0 Z " fill="#E1E2DF" transform="translate(350,496)"/>
<path d="M0 0 C0.99 0 1.98 0 3 0 C3.33 4.95 3.66 9.9 4 15 C3.34 13.68 2.68 12.36 2 11 C1.34 10.34 0.68 9.68 0 9 C-0.1953125 6.8359375 -0.1953125 6.8359375 -0.125 4.375 C-0.10695313 3.55773437 -0.08890625 2.74046875 -0.0703125 1.8984375 C-0.04710938 1.27195312 -0.02390625 0.64546875 0 0 Z " fill="#191B1A" transform="translate(127,492)"/>
<path d="M0 0 C0.66 0.33 1.32 0.66 2 1 C-2.29 5.29 -6.58 9.58 -11 14 C-11 11 -11 11 -9.5625 9.5 C-9.046875 9.005 -8.53125 8.51 -8 8 C-7.67 7.01 -7.34 6.02 -7 5 C-5.36368108 3.95107762 -3.69514137 2.95093297 -2 2 C-1.34 1.34 -0.68 0.68 0 0 Z " fill="#F7F7E3" transform="translate(278,386)"/>
<path d="M0 0 C0.99 0 1.98 0 3 0 C3 0.66 3 1.32 3 2 C3.66 2.33 4.32 2.66 5 3 C3.35 4.65 1.7 6.3 0 8 C0 7.01 0 6.02 0 5 C-0.66 5.66 -1.32 6.32 -2 7 C-2 5.35 -2 3.7 -2 2 C-1.34 2 -0.68 2 0 2 C0 1.34 0 0.68 0 0 Z " fill="#0B0D0C" transform="translate(813,556)"/>
<path d="M0 0 C0.66 0.66 1.32 1.32 2 2 C0.68 5.96 -0.64 9.92 -2 14 C-2.66 13.67 -3.32 13.34 -4 13 C-3.71517632 11.58194169 -3.42181856 10.16559621 -3.125 8.75 C-2.96257812 7.96109375 -2.80015625 7.1721875 -2.6328125 6.359375 C-2.00849925 4.03168856 -1.15161458 2.10968048 0 0 Z " fill="#E7E7E4" transform="translate(307,472)"/>
<path d="M0 0 C0.66 -0.02578125 1.32 -0.0515625 2 -0.078125 C4.61215593 0.35043183 6.00774254 1.56013876 8 3.25 C5.70858714 3.30384521 3.41681812 3.34272087 1.125 3.375 C-0.78925781 3.40980469 -0.78925781 3.40980469 -2.7421875 3.4453125 C-6 3.25 -6 3.25 -8 1.25 C-5.34286645 0.36428882 -2.78089761 0.10376484 0 0 Z " fill="#E8E6E1" transform="translate(808,480.75)"/>
<path d="M0 0 C0.33 0.66 0.66 1.32 1 2 C0.09239638 4.59732225 -0.87067892 7.09450975 -1.9375 9.625 C-2.22818359 10.33140625 -2.51886719 11.0378125 -2.81835938 11.765625 C-3.53867488 13.51327573 -4.26845694 15.25701915 -5 17 C-6.07779829 13.76660512 -5.93183292 13.05331633 -5 9.9375 C-3.96958439 6.90675413 -3.96958439 6.90675413 -5 4 C-4.0409375 3.8453125 -4.0409375 3.8453125 -3.0625 3.6875 C-2.381875 3.460625 -1.70125 3.23375 -1 3 C-0.67 2.01 -0.34 1.02 0 0 Z " fill="#108AE5" transform="translate(273,424)"/>
<path d="M0 0 C0.33 0 0.66 0 1 0 C1.33 2.97 1.66 5.94 2 9 C2.99 9 3.98 9 5 9 C5 9.66 5 10.32 5 11 C3.35 11.33 1.7 11.66 0 12 C0 11.01 0 10.02 0 9 C-0.66 9 -1.32 9 -2 9 C-2.125 5.625 -2.125 5.625 -2 2 C-1.34 1.34 -0.68 0.68 0 0 Z " fill="#1B1C1B" transform="translate(697,394)"/>
<path d="M0 0 C-4.7842494 3.1894996 -8.22424557 4.26863974 -14 4 C-12.63215249 1.26430498 -10.66237461 0.66368786 -7.921875 -0.46875 C-5.09100878 -1.25126587 -2.79298073 -0.74933629 0 0 Z " fill="#E9E7E3" transform="translate(197,389)"/>
<path d="M0 0 C2.45840605 -0.02691685 4.91651882 -0.04679802 7.375 -0.0625 C8.07367187 -0.07087891 8.77234375 -0.07925781 9.4921875 -0.08789062 C14.7734375 -0.11328125 14.7734375 -0.11328125 17 1 C17 1.99 17 2.98 17 4 C14.69 3.67 12.38 3.34 10 3 C10 2.67 10 2.34 10 2 C6.7 1.67 3.4 1.34 0 1 C0 0.67 0 0.34 0 0 Z " fill="#E9E6E1" transform="translate(909,534)"/>
<path d="M0 0 C0.66 1.32 1.32 2.64 2 4 C2.66 3.67 3.32 3.34 4 3 C4 3.66 4 4.32 4 5 C4.66 5 5.32 5 6 5 C5.67 5.99 5.34 6.98 5 8 C4.67 7.67 4.34 7.34 4 7 C3.01 8.485 3.01 8.485 2 10 C2 9.01 2 8.02 2 7 C1.01 7.33 0.02 7.66 -1 8 C-0.67 5.36 -0.34 2.72 0 0 Z " fill="#1391E4" transform="translate(356,488)"/>
<path d="M0 0 C3.07173215 4.60759823 3.33884119 9.62811167 2.5625 15.0625 C2.376875 15.701875 2.19125 16.34125 2 17 C1.67 17 1.34 17 1 17 C1.020625 16.113125 1.04125 15.22625 1.0625 14.3125 C0.99243773 10.5991999 0.39157414 7.37050949 -0.625 3.8125 C-1 2 -1 2 0 0 Z " fill="#E6E3E1" transform="translate(484,469)"/>
<path d="M0 0 C1.98 0.66 3.96 1.32 6 2 C3.93243723 4.7972908 2.85559629 5.02692273 -0.6875 5.6875 C-1.780625 5.790625 -2.87375 5.89375 -4 6 C-2.68 4.02 -1.36 2.04 0 0 Z " fill="#090B0B" transform="translate(826,473)"/>
<path d="M0 0 C0.75 1.5625 0.75 1.5625 1 4 C-0.13084437 6.50286409 -1.52139516 8.67007722 -3 11 C-4.65 11 -6.3 11 -8 11 C-7 8 -7 8 -4 6 C-3.34 6.33 -2.68 6.66 -2 7 C-1.34 4.69 -0.68 2.38 0 0 Z " fill="#EDEDDB" transform="translate(363,466)"/>
<path d="M0 0 C0.33 0 0.66 0 1 0 C1.66 4.29 2.32 8.58 3 13 C1.68 12.34 0.36 11.68 -1 11 C-1.14285714 3.57142857 -1.14285714 3.57142857 0 0 Z " fill="#1D1E1C" transform="translate(250,551)"/>
<path d="M0 0 C1.43583001 -0.10836453 2.8740202 -0.18576167 4.3125 -0.25 C5.11300781 -0.29640625 5.91351562 -0.3428125 6.73828125 -0.390625 C9 0 9 0 10.79296875 2.015625 C11.19128906 2.67046875 11.58960938 3.3253125 12 4 C10.3745692 3.85904936 8.74965949 3.71207913 7.125 3.5625 C6.22007812 3.48128906 5.31515625 3.40007813 4.3828125 3.31640625 C2 3 2 3 0 2 C0 1.34 0 0.68 0 0 Z " fill="#EBE9E6" transform="translate(903,556)"/>
<path d="M0 0 C0.99 0 1.98 0 3 0 C2.9175 0.886875 2.835 1.77375 2.75 2.6875 C3.05208163 6.69008159 4.29727467 8.12835434 7 11 C4.13496932 9.7156759 1.84572295 8.58401213 0 6 C-0.1875 2.8125 -0.1875 2.8125 0 0 Z " fill="#090A0A" transform="translate(557,456)"/>
<path d="M0 0 C0.99 0 1.98 0 3 0 C2.77139942 1.46184058 2.51629608 2.91955419 2.25 4.375 C2.04117187 5.59316406 2.04117187 5.59316406 1.828125 6.8359375 C1 9 1 9 -3 11 C-2.01 7.37 -1.02 3.74 0 0 Z " fill="#E7E5E2" transform="translate(376,698)"/>
<path d="M0 0 C1.41573582 4.24720747 -0.23670387 6.4310024 -2.125 10.3125 C-2.558125 11.1478125 -2.558125 11.1478125 -3 12 C-4.46726798 8.18510326 -3.43336419 5.70988378 -2 2 C-1.34 2 -0.68 2 0 2 C0 1.34 0 0.68 0 0 Z " fill="#EAE8E4" transform="translate(413,642)"/>
<path d="M0 0 C0 5.28 0 10.56 0 16 C-0.33 16 -0.66 16 -1 16 C-2.46670113 10.77487721 -3.22577402 6.4185766 -3 1 C-1 0 -1 0 0 0 Z " fill="#EBE8E5" transform="translate(894,569)"/>
<path d="M0 0 C0.99 0.66 1.98 1.32 3 2 C-0.52059568 3.17353189 -3.306493 3.20146402 -7 3 C-7.66 2.34 -8.32 1.68 -9 1 C-5.98131566 -0.50934217 -3.32702771 -0.17510672 0 0 Z " fill="#242524" transform="translate(919,536)"/>
<path d="M0 0 C1.44349674 0.73839246 2.87959051 1.49126643 4.3125 2.25 C5.11300781 2.66765625 5.91351563 3.0853125 6.73828125 3.515625 C9.13190204 5.08656783 10.43301591 6.6267037 12 9 C11.01 9.33 10.02 9.66 9 10 C8.1646875 8.8553125 8.1646875 8.8553125 7.3125 7.6875 C5.02757355 5.03204493 2.9864388 3.7420893 0 2 C0 1.34 0 0.68 0 0 Z " fill="#E2EEE1" transform="translate(347,429)"/>
<path d="M0 0 C2.97 0.495 2.97 0.495 6 1 C5.67 1.99 5.34 2.98 5 4 C3.68 4 2.36 4 1 4 C0.67 4.66 0.34 5.32 0 6 C0 5.34 0 4.68 0 4 C-0.99 3.67 -1.98 3.34 -3 3 C-2.01 2.67 -1.02 2.34 0 2 C0 1.34 0 0.68 0 0 Z " fill="#1B93E3" transform="translate(344,368)"/>
<path d="M0 0 C0.66 0 1.32 0 2 0 C2 0.99 2 1.98 2 3 C3.65 3.33 5.3 3.66 7 4 C6.67 5.32 6.34 6.64 6 8 C3 6.25 3 6.25 0 4 C0 2.68 0 1.36 0 0 Z " fill="#1A1B1B" transform="translate(400,351)"/>
<path d="M0 0 C0.99 0.33 1.98 0.66 3 1 C3.6875 3.25 3.6875 3.25 4 6 C2.6875 8.3125 2.6875 8.3125 1 10 C0.34 10 -0.32 10 -1 10 C-0.67 6.7 -0.34 3.4 0 0 Z " fill="#1B1D1B" transform="translate(408,588)"/>
<path d="M0 0 C1.60031344 3.20062687 0.03173691 5.72271806 -1 9 C-1.99 9 -2.98 9 -4 9 C-3.67 6.36 -3.34 3.72 -3 1 C-2.01 0.67 -1.02 0.34 0 0 Z " fill="#F9F8ED" transform="translate(358,476)"/>
<path d="M0 0 C-3.32307692 3.93846154 -3.32307692 3.93846154 -6.75 4.25 C-7.4925 4.1675 -8.235 4.085 -9 4 C-9 3.01 -9 2.02 -9 1 C-2.25 -1.125 -2.25 -1.125 0 0 Z " fill="#1A1B1A" transform="translate(618,457)"/>
<path d="M0 0 C0.66 0.33 1.32 0.66 2 1 C1.01 1.33 0.02 1.66 -1 2 C-1.33 2.99 -1.66 3.98 -2 5 C-2.66 5 -3.32 5 -4 5 C-4 5.66 -4 6.32 -4 7 C-5.32 6.67 -6.64 6.34 -8 6 C-5.54080489 3.3651481 -3.42227589 1.25483449 0 0 Z " fill="#1A1A1A" transform="translate(711,394)"/>
<path d="M0 0 C0 0.99 0 1.98 0 3 C-4.455 4.485 -4.455 4.485 -9 6 C-8.67 4.68 -8.34 3.36 -8 2 C-5.10888212 0.47835901 -3.28176588 0 0 0 Z " fill="#1D1E1E" transform="translate(593,379)"/>
<path d="M0 0 C1.65 0.33 3.3 0.66 5 1 C5.33 1.99 5.66 2.98 6 4 C6.99 4 7.98 4 9 4 C8.67 4.99 8.34 5.98 8 7 C5.03 5.35 2.06 3.7 -1 2 C-0.67 1.34 -0.34 0.68 0 0 Z " fill="#191A19" transform="translate(380,337)"/>
<path d="M0 0 C2 2 2 2 2 6 C3.32 6.33 4.64 6.66 6 7 C5.67 7.99 5.34 8.98 5 10 C0.125 5.375 0.125 5.375 -1 2 C-0.67 1.34 -0.34 0.68 0 0 Z " fill="#191A19" transform="translate(710,606)"/>
<path d="M0 0 C0.66 0 1.32 0 2 0 C1.67 6.27 1.34 12.54 1 19 C0.67 19 0.34 19 0 19 C-0.1938211 16.02111874 -0.38035102 13.04209754 -0.5625 10.0625 C-0.61857422 9.21236328 -0.67464844 8.36222656 -0.73242188 7.48632812 C-0.80493164 6.27299805 -0.80493164 6.27299805 -0.87890625 5.03515625 C-0.9260376 4.2862915 -0.97316895 3.53742676 -1.02172852 2.76586914 C-1 1 -1 1 0 0 Z " fill="#191C1B" transform="translate(694,567)"/>
<path d="M0 0 C0.66 0.33 1.32 0.66 2 1 C1.67 2.65 1.34 4.3 1 6 C0.34 6 -0.32 6 -1 6 C-0.67 7.65 -0.34 9.3 0 11 C-0.99 10.67 -1.98 10.34 -3 10 C-2.69201674 8.51988629 -2.378482 7.04092675 -2.0625 5.5625 C-1.88847656 4.73878906 -1.71445312 3.91507813 -1.53515625 3.06640625 C-1 1 -1 1 0 0 Z " fill="#E9E8E5" transform="translate(302,545)"/>
<path d="M0 0 C2.23551759 3.35327639 2.17283528 3.90743657 1.625 7.6875 C1.51414062 8.49574219 1.40328125 9.30398438 1.2890625 10.13671875 C1.19367188 10.75160156 1.09828125 11.36648438 1 12 C-1.58464442 7.61991557 -0.81479148 4.88874887 0 0 Z " fill="#F9F8EC" transform="translate(352,490)"/>
<path d="M0 0 C0.66 0.33 1.32 0.66 2 1 C1.67 4.3 1.34 7.6 1 11 C0.01 10.34 -0.98 9.68 -2 9 C-1.125 1.125 -1.125 1.125 0 0 Z " fill="#191919" transform="translate(130,462)"/>
<path d="M0 0 C3.96 1.98 7.92 3.96 12 6 C11.34 6.66 10.68 7.32 10 8 C6.89504293 6.96501431 6.21350711 6.21350711 4 4 C1.90010348 2.82425289 1.90010348 2.82425289 0 2 C0 1.34 0 0.68 0 0 Z " fill="#E8F0E0" transform="translate(361,393)"/>
<path d="M0 0 C7.42857143 -0.28571429 7.42857143 -0.28571429 11 2 C10.34 2 9.68 2 9 2 C8.67 2.66 8.34 3.32 8 4 C5.36 3.34 2.72 2.68 0 2 C0 1.34 0 0.68 0 0 Z " fill="#191A1A" transform="translate(333,709)"/>
<path d="M0 0 C3.63 0.33 7.26 0.66 11 1 C10 3 10 3 7.75 3.8125 C4.25541542 4.05076713 2.76811116 3.05631115 0 1 C0 0.67 0 0.34 0 0 Z " fill="#181918" transform="translate(806,615)"/>
<path d="M0 0 C0.99 0 1.98 0 3 0 C2.67 4.29 2.34 8.58 2 13 C1.67 13 1.34 13 1 13 C0.67 8.71 0.34 4.42 0 0 Z " fill="#1A1B1A" transform="translate(613,569)"/>
<path d="M0 0 C0.99 0 1.98 0 3 0 C3 0.66 3 1.32 3 2 C3.928125 2.12375 3.928125 2.12375 4.875 2.25 C7 3 7 3 9 7 C5.7 5.35 2.4 3.7 -1 2 C-0.67 1.34 -0.34 0.68 0 0 Z " fill="#E5E4E2" transform="translate(672,538)"/>
<path d="M0 0 C0.99 0 1.98 0 3 0 C2.17866861 4.34132307 1.03182126 8.07181224 -1 12 C-2.11658501 7.31034294 -1.80619523 4.46236469 0 0 Z " fill="#E9E7E4" transform="translate(305,533)"/>
<path d="M0 0 C0.33 0 0.66 0 1 0 C1.33 1.65 1.66 3.3 2 5 C4.31 5.66 6.62 6.32 9 7 C5.18510326 8.46726798 2.70988378 7.43336419 -1 6 C-0.67 4.02 -0.34 2.04 0 0 Z " fill="#FBFAF8" transform="translate(345,521)"/>
<path d="M0 0 C2.64 0.33 5.28 0.66 8 1 C7.67 1.99 7.34 2.98 7 4 C4.69 3.67 2.38 3.34 0 3 C0 2.01 0 1.02 0 0 Z " fill="#181919" transform="translate(797,477)"/>
<path d="M0 0 C0.99 0 1.98 0 3 0 C3.66 3.3 4.32 6.6 5 10 C4.01 10.495 4.01 10.495 3 11 C3 9.35 3 7.7 3 6 C2.34 6 1.68 6 1 6 C0.67 4.02 0.34 2.04 0 0 Z " fill="#E8E6E3" transform="translate(420,392)"/>
<path d="M0 0 C1.125 1.5 1.125 1.5 2 4 C1.57598348 6.7773082 0.81108065 9.29639783 0 12 C-0.33 12 -0.66 12 -1 12 C-1.33 8.37 -1.66 4.74 -2 1 C-1.34 0.67 -0.68 0.34 0 0 Z " fill="#E5E7E2" transform="translate(293,513)"/>
<path d="M0 0 C2.35953094 2.35953094 2.49141413 3.77895617 3 7 C2.01 7.495 2.01 7.495 1 8 C0.34 8.99 -0.32 9.98 -1 11 C-0.67 8.69 -0.34 6.38 0 4 C-0.66 3.67 -1.32 3.34 -2 3 C-1.34 3 -0.68 3 0 3 C0 2.01 0 1.02 0 0 Z " fill="#DFE5E0" transform="translate(299,488)"/>
<path d="M0 0 C0.25 6.625 0.25 6.625 -2 10 C-3 9 -3 9 -3.09765625 7.15234375 C-3.06510417 5.1015625 -3.03255208 3.05078125 -3 1 C-1 0 -1 0 0 0 Z " fill="#212221" transform="translate(276,669)"/>
<path d="M0 0 C1.9375 0.6875 1.9375 0.6875 4 2 C4.75 4.625 4.75 4.625 5 7 C4.34 7 3.68 7 3 7 C3 6.01 3 5.02 3 4 C0.03 3.505 0.03 3.505 -3 3 C-2.01 2.67 -1.02 2.34 0 2 C0 1.34 0 0.68 0 0 Z " fill="#1A1A18" transform="translate(228,562)"/>
<path d="M0 0 C2.52588702 2.36292656 3.88820837 3.66462511 5 7 C4.67 7.66 4.34 8.32 4 9 C3.34 9 2.68 9 2 9 C1.01 6.36 0.02 3.72 -1 1 C-0.67 0.67 -0.34 0.34 0 0 Z " fill="#1A1B1A" transform="translate(937,546)"/>
<path d="M0 0 C6.0546875 -0.1953125 6.0546875 -0.1953125 8 0 C8.66 0.66 9.32 1.32 10 2 C6.33694766 2.74926071 3.57644848 3.2380014 0 2 C0 1.34 0 0.68 0 0 Z " fill="#181A19" transform="translate(322,706)"/>
<path d="M0 0 C0.99 0.66 1.98 1.32 3 2 C2.01 2.66 1.02 3.32 0 4 C-0.66 4.66 -1.32 5.32 -2 6 C-4.125 6.625 -4.125 6.625 -6 7 C-6 6.34 -6 5.68 -6 5 C-5.34 5 -4.68 5 -4 5 C-4 4.34 -4 3.68 -4 3 C-2 1.375 -2 1.375 0 0 Z " fill="#181A19" transform="translate(456,571)"/>
<path d="M0 0 C2.31 0.33 4.62 0.66 7 1 C7 1.99 7 2.98 7 4 C4.69 3.67 2.38 3.34 0 3 C0 2.01 0 1.02 0 0 Z " fill="#E5E4E1" transform="translate(202,558)"/>
<path d="M0 0 C0.33 0.66 0.66 1.32 1 2 C1.66 2.33 2.32 2.66 3 3 C2.34 5.31 1.68 7.62 1 10 C0.34 9.67 -0.32 9.34 -1 9 C-0.67 6.03 -0.34 3.06 0 0 Z " fill="#181918" transform="translate(504,513)"/>
<path d="M0 0 C1.46726798 3.81489674 0.43336419 6.29011622 -1 10 C-1.66 9.67 -2.32 9.34 -3 9 C-2.4140625 2.84765625 -2.4140625 2.84765625 -2 1 C-1.34 0.67 -0.68 0.34 0 0 Z " fill="#E4E2DF" transform="translate(510,505)"/>
<path d="M0 0 C0.99 0.66 1.98 1.32 3 2 C2.34 3.65 1.68 5.3 1 7 C0.34 7 -0.32 7 -1 7 C-1.33 5.02 -1.66 3.04 -2 1 C-1.34 0.67 -0.68 0.34 0 0 Z " fill="#1A92E5" transform="translate(372,484)"/>
<path d="M0 0 C2.32590854 3.63423209 2.16265833 6.77088331 2 11 C0.4375 10 0.4375 10 -1 8 C-0.96726452 5.23385218 -0.49404328 2.73969453 0 0 Z " fill="#E5E3DF" transform="translate(568,406)"/>
<path d="M0 0 C0.99 0 1.98 0 3 0 C2.67 3.3 2.34 6.6 2 10 C1.67 10 1.34 10 1 10 C0.67 6.7 0.34 3.4 0 0 Z " fill="#181919" transform="translate(657,402)"/>
<path d="M0 0 C2 3.75 2 3.75 2 6 C1.34 6 0.68 6 0 6 C0.33 7.98 0.66 9.96 1 12 C-1.44576827 8.33134759 -1.23607254 6.32799657 -1 2 C-0.67 1.34 -0.34 0.68 0 0 Z " fill="#232523" transform="translate(255,573)"/>
<path d="M0 0 C1.09658936 3.28976808 0.79953138 4.71303767 0 8 C-0.99 8 -1.98 8 -3 8 C-2.74438677 5.6568787 -2.40729228 3.32156597 -2 1 C-1.34 0.67 -0.68 0.34 0 0 Z " fill="#E6E4E1" transform="translate(662,431)"/>
<path d="M0 0 C0.99 0 1.98 0 3 0 C3.125 2.375 3.125 2.375 3 5 C2.34 5.66 1.68 6.32 1 7 C0.34 7.99 -0.32 8.98 -1 10 C-1.02689216 8.52093108 -1.04634621 7.04172517 -1.0625 5.5625 C-1.07410156 4.73878906 -1.08570313 3.91507812 -1.09765625 3.06640625 C-1 1 -1 1 0 0 Z " fill="#1C1D1D" transform="translate(658,427)"/>
<path d="M0 0 C-2.63904371 1.41377341 -5.07120629 2.37240135 -8 3 C-8 2.01 -8 1.02 -8 0 C-4.94736336 -0.98120464 -3.05263664 -0.98120464 0 0 Z " fill="#E8E6E3" transform="translate(844,621)"/>
<path d="M0 0 C1.32 0 2.64 0 4 0 C3.34 1.98 2.68 3.96 2 6 C1.01 5.34 0.02 4.68 -1 4 C-0.34 4 0.32 4 1 4 C1 3.34 1 2.68 1 2 C0.34 1.67 -0.32 1.34 -1 1 C-0.67 0.67 -0.34 0.34 0 0 Z " fill="#1A1B1B" transform="translate(861,597)"/>
<path d="M0 0 C0 0.66 0 1.32 0 2 C-0.99 2 -1.98 2 -3 2 C-3 2.66 -3 3.32 -3 4 C-5.97 3.505 -5.97 3.505 -9 3 C-5.87496336 0.91664224 -3.72863529 0 0 0 Z " fill="#E5E4E3" transform="translate(453,577)"/>
<path d="M0 0 C1.89213369 2.38573379 3.02391783 4.07175348 4 7 C2.68 6.67 1.36 6.34 0 6 C-0.38218767 4.34385343 -0.71395102 2.67542976 -1 1 C-0.67 0.67 -0.34 0.34 0 0 Z " fill="#E4E3E0" transform="translate(267,560)"/>
<path d="M0 0 C0.33 0.66 0.66 1.32 1 2 C0.0625 4.625 0.0625 4.625 -1 7 C-1.99 7 -2.98 7 -4 7 C-3.6875 4.625 -3.6875 4.625 -3 2 C-2.01 1.34 -1.02 0.68 0 0 Z " fill="#E1DEDA" transform="translate(372,559)"/>
<path d="M0 0 C-0.33 0.66 -0.66 1.32 -1 2 C-3.32156597 2.40729228 -5.6568787 2.74438677 -8 3 C-8 2.01 -8 1.02 -8 0 C-4.94736336 -0.98120464 -3.05263664 -0.98120464 0 0 Z " fill="#252624" transform="translate(827,537)"/>
<path d="M0 0 C1.32 0 2.64 0 4 0 C4 0.66 4 1.32 4 2 C4.66 2.66 5.32 3.32 6 4 C4.35 4.66 2.7 5.32 1 6 C0.67 4.02 0.34 2.04 0 0 Z " fill="#090C0C" transform="translate(329,456)"/>
<path d="M0 0 C0.66 0 1.32 0 2 0 C2.125 3.375 2.125 3.375 2 7 C1.34 7.66 0.68 8.32 0 9 C-1.125 3.375 -1.125 3.375 0 0 Z " fill="#181919" transform="translate(546,396)"/>
<path d="M0 0 C2.64 0 5.28 0 8 0 C8.33 1.32 8.66 2.64 9 4 C6.03 3.01 3.06 2.02 0 1 C0 0.67 0 0.34 0 0 Z " fill="#E2E1DE" transform="translate(820,393)"/>
<path d="M0 0 C3.63 0.33 7.26 0.66 11 1 C11 1.33 11 1.66 11 2 C7.7 2.33 4.4 2.66 1 3 C0.67 2.01 0.34 1.02 0 0 Z " fill="#E5ECE5" transform="translate(320,389)"/>
<path d="M0 0 C0.99 0.33 1.98 0.66 3 1 C2.67 1.66 2.34 2.32 2 3 C2.66 3 3.32 3 4 3 C4 3.99 4 4.98 4 6 C2.68 5.67 1.36 5.34 0 5 C0 3.35 0 1.7 0 0 Z " fill="#1694E3" transform="translate(315,370)"/>
</svg>
